<?xml version="1.0" standalone="no"?>
<!DOCTYPE svg PUBLIC "-//W3C//DTD SVG 1.1//EN" "http://www.w3.org/Graphics/SVG/1.1/DTD/svg11.dtd">
<svg xmlns="http://www.w3.org/2000/svg">
<metadata>Generated by Fontastic.me</metadata>
<defs>
<font id="untitled-font-1" horiz-adv-x="512">
<font-face font-family="untitled-font-1" units-per-em="512" ascent="480" descent="-32"/>
<missing-glyph horiz-adv-x="512" />

<glyph glyph-name="camera" unicode="&#97;" d="M305 239c0-27-22-48-49-48-27 0-48 21-48 48 0 27 21 49 48 49 27 0 49-22 49-49z m139 149l0 0-85 0 0 15c0 10-9 19-19 19l-168 0c-10 0-19-9-19-19l0-15-85 0 0 0c-11 0-19-8-19-19l0-259c0-11 8-19 19-19l0-1 376 0 0 1c11 0 19 8 19 19l0 259c0 11-8 19-19 19z m-187-247c-54 0-98 44-98 98 0 55 44 99 98 99 55 0 99-44 99-99 0-54-44-98-99-98z m181 171l-76 0 0 51 76 0 0-51z"/>
<glyph glyph-name="comment" unicode="&#98;" d="M453 425c-1 9-8 16-17 16l-360 0 0 0c-9 0-16-7-17-16l0 0 0-288 0 0c2-8 9-14 17-14l0 0 59 0 0-35c0-9 8-17 17-17 6 0 11 3 14 8l45 44 225 0c8 0 15 6 17 14l0 0 0 288z"/>
<glyph glyph-name="comments" unicode="&#99;" d="M486 421c0 6-6 11-12 11l0 0-271 0c-7 0-12-5-13-11l0 0 0-68 114 0c6 0 11-4 12-10l0 0 0-150 56 0 33-33c3-3 7-6 11-6 7 0 13 6 13 13l0 26 45 0 0 0c6 0 11 5 12 11l0 0 0 217z m-207-93l-242 0 0 0c-6 0-11-5-11-11l0 0 0-193 0 0c1-5 5-9 11-10l0 0 40 0 0-23c0-6 5-11 11-11 4 0 8 2 10 5l30 29 151 0c5 0 10 4 11 10l0 0 0 193 0 0c0 6-5 11-11 11z"/>
<glyph glyph-name="comment-quotes" unicode="&#100;" d="M453 425c-1 9-8 16-17 16l-360 0 0 0c-9 0-16-7-17-16l0 0 0-288 0 0c2-8 9-14 17-14l0 0 59 0 0-35c0-9 8-17 17-17 6 0 11 3 14 8l45 44 225 0c8 0 15 6 17 14l0 0 0 288z m-308-172c-15 0-29 12-29 34 0 25 13 47 34 61l0 0c1 1 1 1 2 1 1 0 1 0 2-1l0 0 14-9 0 0c1 0 1-1 1-3 0-1 0-2-2-3l0 0c0 0 0 0 0 0 0 0 0 0 0 0-10-6-22-19-25-31 2 1 4 1 7 1 13 0 23-10 23-24 0-14-12-26-27-26z m68 0c-15 0-29 12-29 34 0 25 13 47 34 61l0 0c0 1 1 1 2 1 0 0 1 0 2-1l0 0 14-9 0 0c1 0 1-1 1-3 0-1-1-2-2-3l0 0c0 0 0 0 0 0 0 0 0 0 0 0-11-6-22-19-25-31 1 1 4 1 7 1 12 0 22-10 22-24 0-14-12-26-26-26z m81-37l0 0c0 0-1-1-2-1 0 0-1 1-2 1l0 0-14 9 0 0c-1 1-1 2-1 3 0 1 1 3 2 3l0 0c0 0 0 0 0 0 0 0 0 0 0 0 11 6 22 20 25 31-1 0-4-1-7-1-12 0-22 10-22 24 0 15 12 27 26 27 15 0 29-13 29-34 0-25-13-48-34-62z m68 0l0 0c-1 0-1-1-2-1-1 0-1 1-2 1l0 0-14 9 0 0c-1 1-1 2-1 3 0 1 0 3 2 3l0 0c0 0 0 0 0 0 0 0 0 0 0 0 10 6 22 20 25 31-2 0-4-1-7-1-13 0-23 10-23 24 0 15 12 27 27 27 15 0 29-13 29-34 0-25-13-48-34-62z"/>
<glyph glyph-name="comment-minus" unicode="&#101;" d="M324 230c-5 0-9 4-9 9 0 0 0 0 0 0l0 86c0 5 4 9 9 9l91 0 0 91 0 0c-1 9-8 16-17 16l-360 0 0 0c-9 0-16-7-17-16l0 0 0-288 1 0c1-8 8-14 16-14l0 0 59 0 0-35c0-9 8-17 18-17 5 0 11 3 14 8l44 44 225 0c9 0 16 6 17 14l0 0 0 93z m158 79l-133 0c-5 0-9-4-9-9l0-36c0-4 4-8 9-8l133 0c5 0 9 4 9 8l0 36c0 5-4 9-9 9z"/>
<glyph glyph-name="play" unicode="&#102;" d="M394 256c0 4-2 8-6 10l-252 146c-2 1-4 2-7 2-6 0-11-5-11-12 0 0 0-1 0-1l0 0 0-293 0 0c1-5 5-10 11-10 2 0 4 1 6 2l0 0 253 146 0 0c4 2 6 6 6 10z"/>
<glyph glyph-name="results-demographics" unicode="&#103;" d="M143 274c-7 14-11 31-11 47 0 9 2 18 4 28 1 4 3 9 5 13-7 3-14 5-21 5-28 0-51-26-51-59 0-22 11-42 27-52l-68-32c-5-2-7-7-7-12l0-54c0-8 5-13 11-13l40 0 0 56c0 17 10 32 24 39l53 24c-2 3-4 7-6 10z m165 60l174 0 0 0c0 0 0 0 0 0 5 0 10 4 10 9 0 0 0 0 0 0l0 33c0 5-5 9-10 9 0 0 0 0 0 0l0 0-195 0c9-11 15-24 18-38 2-5 2-9 3-13z m184-162c0 5-5 9-10 9 0 0 0 0 0 0l0 0-113 0 0-47c0-1 0-3-1-4l114 0 0 0c0 0 0 0 0 0 5 0 10 4 10 9z m-10 111c0 0 0 0 0 0l0 0-180 0c-1-2-2-4-3-7-2-4-4-8-6-11l53-25c4-2 7-5 10-8l126 0 0 0c0 0 0 0 0 0 5 0 10 4 10 9 0 0 0 0 0 0l0 33c0 5-5 9-10 9z m-148-66l-59 28-25 12c11 7 20 17 26 30 5 10 7 22 7 34 0 7-1 13-2 20-8 30-32 53-60 53-29 0-52-22-60-52-2-6-3-14-3-21 0-13 3-25 8-36 6-12 15-22 26-29l-24-11-61-28c-6-3-9-9-9-16l0-67c0-9 6-16 14-16l217 0c8 0 14 7 14 16l0 67c0 7-3 13-9 16z"/>
<glyph glyph-name="power" unicode="&#104;" d="M392 396l0 0c-2 2-5 3-8 3-3 0-5-1-7-3l0 0-1 0c0 0 0 0 0 0l-21-19c0 0 0 0 0-1l0 0 0 0c-2-2-3-4-3-7 0-4 2-8 5-10 25-25 40-60 40-98 0-78-63-141-141-141-78 0-141 63-141 141 0 38 16 73 41 99l0 0c2 2 4 5 4 9 0 3-2 5-4 7l0 0 0 0c0 1 0 1 0 1l-21 19c0 0 0 0 0 0l-1 0 0 0c-2 2-4 3-7 3-4 0-8-2-10-6-33-34-53-81-53-132 0-106 86-192 192-192 106 0 192 86 192 192 0 52-21 100-56 135z m-150-205l28 0c0 0 0 0 0 0 6 0 11 5 11 11l0 230 0 0c0 0 0 0 0 0 0 6-5 11-11 11 0 0 0 0 0 0l-28 0c-6 0-11-5-11-11 0 0 0 0 0 0l0 0 0-230c0-6 5-11 11-11z"/>
<glyph glyph-name="rss" unicode="&#105;" d="M134 179c-24 0-45-20-45-45 0-24 21-44 45-44 25 0 45 20 45 44 0 25-20 45-45 45z m-13 124c-1 0-1 0-1 0l0 0-18 0 0 0c-9-1-15-8-16-17l0 0 0-32 1 0c1-8 7-14 15-15l0 0 18 0 0 0c0 0 0 0 1 0 65 0 118-53 119-118l0 0 0-18 0 0c1-9 8-15 17-16l0 0 32 0 0 1c8 1 14 7 15 15l0 0 0 18 0 0c-1 100-83 182-183 182z m305-182c-1 167-138 304-305 304-1 0-1 0-1 0l0 0-18 0 0-1c-9-1-15-8-16-17l0 0 0-31 1 0c1-8 7-15 15-16l0 0 18 0 0 0c0 0 0 0 1 0 132 0 240-107 240-239l0 0 0-18 0 0c1-9 9-15 17-16l0 0 32 0 0 1c8 1 14 7 15 15l1 0 0 18 0 0z"/>
<glyph glyph-name="social-facebook" unicode="&#106;" d="M420 440l-328 0c-11 0-20-9-20-20l0-328c0-11 9-20 20-20l177 0 0 142-48 0 0 56 48 0 0 41c0 48 29 74 71 74 20 0 38-2 43-3l0-49-29 0c-23 0-28-11-28-27l0-36 55 0-7-56-48 0 0-142 94 0c11 0 20 9 20 20l0 328c0 11-9 20-20 20z"/>
<glyph glyph-name="social-tumblr" unicode="&#107;" d="M404 440l-296 0c-20 0-36-16-36-36l0-296c0-20 16-36 36-36l296 0c20 0 36 16 36 36l0 296c0 20-16 36-36 36z m-62-308c-12-5-23-9-33-12-9-2-20-3-31-3-13 0-24 2-34 5-9 3-18 8-25 14-6 6-11 12-14 19-3 6-4 16-4 29l0 97-31 0 0 39c11 4 21 9 28 16 8 6 14 14 19 23 5 10 8 22 10 36l39 0 0-70 66 0 0-44-66 0 0-71c0-16 1-27 3-31 2-5 5-8 10-11 6-4 13-6 21-6 14 0 28 5 42 14l0-44z"/>
<glyph glyph-name="torso" unicode="&#108;" d="M410 203l-80 38-34 16c15 9 27 24 35 41 6 14 10 29 10 46 0 9-1 18-4 27-10 41-42 72-81 72-38 0-70-30-81-70-2-9-4-19-4-29 0-18 4-34 11-49 8-16 20-30 35-39l-32-15-83-38c-7-4-12-12-12-21l0-91c0-12 8-22 19-22l294 0c11 0 19 10 19 22l0 91c0 9-4 17-12 21z"/>
<glyph glyph-name="torso-business" unicode="&#109;" d="M410 203l-80 38-34 16c15 9 27 24 35 41 6 14 10 29 10 46 0 9-1 18-4 27-10 41-42 72-81 72-38 0-70-30-81-70-2-9-4-19-4-29 0-18 4-34 11-49 8-16 20-30 35-39l-33-15-82-38c-7-4-12-12-12-21l0-91c0-12 8-22 19-22l123 0 0 70c0 0 0 1 0 2l0 0 20 35 0 0c1 1 2 2 4 2 2 0 3-1 4-2l0 0 0-1c0 0 0 0 0 0l20-34 0 0c0-1 0-2 0-2l0-70 123 0c11 0 19 10 19 22l0 91c0 9-4 17-12 21z m-130 23l0 0-20-35 0 0c-1-1-2-2-4-2-2 0-3 1-4 2l0 0 0 0c0 0 0 0 0 0l-20 35 0 0c0 0 0 1 0 2 0 2 2 4 4 4l40 0c2 0 4-2 4-4 0-1 0-2 0-2z"/>
<glyph glyph-name="torso-female" unicode="&#110;" d="M410 203l-80 38-34 16c1 0 2 1 3 2l44 0c7 0 13 5 13 12l0 33 0 0c-2 46-18 86-41 111-13 14-29 24-48 27 0 0-1 0-2 0-1 0-2 1-3 1-2 0-4 0-6 0 0 0 0 0 0 0-2 0-4 0-6 0-1 0-2 0-3-1-1 0-2 0-2 0-18-3-35-12-47-26-24-26-40-66-42-112l0 0 0-33c0-7 6-12 13-12l44 0c2-1 3-2 4-3l-32-15-83-38c-7-4-12-12-12-21l0-91c0-12 8-22 19-22l294 0c11 0 19 10 19 22l0 91c0 9-4 17-12 21z"/>
<glyph glyph-name="torsos" unicode="&#111;" d="M207 257c4 3 9 7 13 11-14 20-22 46-22 72 0 18 3 35 10 51-10 6-21 10-33 10-36 0-66-34-66-77 0-29 15-55 36-68l-90-41c-5-3-9-9-9-16l0-71c0-9 7-17 15-17l59 0 0 74c0 19 11 36 27 44z m248-52l-77 36-33 16c14 9 26 23 33 39 6 14 10 28 10 44 0 9-2 18-3 26-10 40-41 69-79 69-36 0-67-28-77-67-3-9-4-18-4-28 0-17 4-32 11-46 7-16 19-29 33-38l-31-14-80-37c-7-3-11-11-11-20l0-87c0-12 8-21 18-21l283 0c10 0 18 9 18 21l0 87c0 9-5 16-11 20z"/>
<glyph glyph-name="torsos-all" unicode="&#112;" d="M492 217l-83 40c20 12 33 36 33 63 0 40-28 72-62 72-12 0-23-4-32-11 6-14 9-29 9-46 0-24-7-48-20-67 4-5 9-9 15-12l0 0 53-25c15-8 25-24 25-41l0-70 57 0c7 0 14 7 14 16l0 66c0 7-4 13-9 15z m-330 40c4 3 8 6 12 10-13 19-21 43-21 68 0 17 4 33 10 47-10 6-20 10-31 10-34 0-62-32-62-72 0-28 14-52 34-64l-84-39c-5-2-9-8-9-15l0-66c0-9 7-16 14-16l55 0 0 70c0 17 10 34 26 41z m232-49l-72 34-31 15c14 8 25 21 32 37 5 12 9 26 9 41 0 9-2 17-4 24-9 38-38 65-73 65-34 0-63-26-73-63-2-8-3-17-3-26 0-16 3-31 10-44 7-14 18-27 31-35l-29-13-75-35c-6-3-10-10-10-18l0-82c0-11 7-20 17-20l264 0c10 0 18 9 18 20l0 82c0 8-5 15-11 18z"/>
<glyph glyph-name="torsos-all-female" unicode="&#113;" d="M395 209l-72 34-30 14c1 0 1 1 2 1l40 0c6 0 11 5 11 11l0 30 0 0c-1 39-14 74-34 97-14 18-34 29-56 29-24 0-46-13-60-34-17-23-29-55-30-92l0 0 0-30c0-6 5-11 11-11l41 0c0 0 1-1 2-1l-29-14-74-34c-6-3-10-9-10-17-1-1-1-2-1-3l0-82c0-11 8-20 17-20l266 0c9 0 17 9 17 20l0 82c0 4-1 8-3 11-2 4-5 7-8 9z m-264 34l0 31 0 0c2 42 13 80 30 110-8 5-18 8-28 8-34 0-62-32-62-71 0-28 14-52 33-64l-83-39c-5-3-9-8-9-15l0-66c0-9 6-16 14-16l55 0 0 69c0 18 10 34 26 42z m360-26l-83 39c19 12 33 36 33 64 0 39-28 72-62 72-10 0-20-4-28-9 17-30 28-68 30-110l0 0 0-31 24-11c16-8 26-24 26-42l0-69 55 0c8 0 14 7 14 16l0 66c0 7-4 12-9 15z"/>
<glyph glyph-name="torsos-female-male" unicode="&#114;" d="M175 271l0 33 0 0c1 28 7 54 18 76 1 3 2 7 3 11-9 6-20 10-32 10-37 0-66-34-66-77 0-29 14-55 36-68l-90-41c-5-3-9-9-9-16l0-71c0-9 7-17 15-17l59 0 0 74c0 19 10 36 27 44l39 18 0 24z m290-68l-80 38-34 16c1 0 2 1 3 2l44 0c7 0 13 5 13 12l0 33-1 0c-1 46-17 86-41 111-12 14-29 24-47 27-1 0-1 0-2 0-1 0-2 1-3 1-2 0-4 0-6 0-2 0-4 0-6 0-1 0-2 0-3-1-1 0-2 0-3 0-18-3-34-12-46-26-25-25-41-66-42-112l0 0 0-33c0-7 5-12 12-12l45 0c1-1 2-2 4-3l-33-15-83-38c-7-4-11-12-11-21l0-91c0-12 8-22 19-22l294 0c10 0 19 10 19 22l0 91c0 9-5 17-12 21z"/>
<glyph glyph-name="torsos-male-female" unicode="&#115;" d="M466 188c-1 8-6 14-11 17l-77 36-33 16c14 9 26 23 33 39 6 14 10 28 10 44 0 9-2 18-3 26-10 40-41 69-79 69-33 0-61-23-74-56-1-4-2-7-3-11-2-6-3-13-4-20 0-3 0-5 0-8 0-2 0-4 0-6 1-14 5-28 10-40 8-16 20-29 34-38l-31-14-80-37c-5-3-9-8-10-14-1-2-1-4-1-6l0-87c0-12 8-21 18-21l283 0c10 0 18 9 18 21l0 87c0 1 0 2 0 3z m-265 66l14 8c-16 21-25 49-25 78 0 21 4 41 12 58-8 4-16 6-25 6-43 0-78-49-80-111l0 0 0-26c0-6 5-10 10-10l37 0c0 0 0-1 1-1l-90-41c-5-3-9-9-9-16l0-71c0-9 7-17 15-17l59 0 0 74c0 19 11 36 27 44z"/>
<glyph glyph-name="camera-1" unicode="&#116;" d="M256 316c21 0 39-8 54-23 15-15 23-33 23-54 0-21-8-39-23-54-15-15-33-23-54-23-21 0-39 8-54 23-15 15-23 33-23 54 0 21 8 39 23 54 15 15 33 23 54 23z m188 111c19 0 35-7 48-20 13-14 20-30 20-49l0-239c0-18-7-34-20-48-13-13-29-20-48-20l-376 0c-19 0-35 7-48 20-13 14-20 30-20 48l0 239c0 19 7 35 20 49 13 13 29 20 48 20l60 0 14 36c3 9 9 16 18 22 9 7 18 10 28 10l136 0c10 0 19-3 28-10 9-6 15-13 18-22l14-36z m-188-308c33 0 61 12 84 36 24 23 35 51 35 84 0 33-11 61-35 84-23 24-51 35-84 35-33 0-61-11-84-35-24-23-35-51-35-84 0-33 11-61 35-84 23-24 51-36 84-36z"/>
<glyph glyph-name="clock" unicode="&#117;" d="M293 357l0-128c0-3-1-5-3-7-2-2-4-3-7-3l-91 0c-3 0-5 1-7 3-1 2-2 4-2 7l0 18c0 3 1 5 2 6 2 2 4 3 7 3l64 0 0 101c0 2 1 4 3 6 1 2 3 3 6 3l18 0c3 0 5-1 7-3 2-2 3-4 3-6z m118-101c0 28-7 54-20 78-14 24-33 43-57 57-24 13-50 20-78 20-28 0-54-7-78-20-24-14-43-33-57-57-13-24-20-50-20-78 0-28 7-54 20-78 14-24 33-43 57-57 24-13 50-20 78-20 28 0 54 7 78 20 24 14 43 33 57 57 13 24 20 50 20 78z m64 0c0-40-9-77-29-110-20-34-46-60-80-80-33-20-70-29-110-29-40 0-77 9-110 29-34 20-60 46-80 80-20 33-29 70-29 110 0 40 9 77 29 110 20 34 46 60 80 80 33 20 70 29 110 29 40 0 77-9 110-29 34-20 60-46 80-80 20-33 29-70 29-110z"/>
<glyph glyph-name="cloud-upload" unicode="&#118;" d="M341 265c0 2 0 4-2 6l-94 94c-2 1-4 2-6 2-3 0-5-1-6-2l-94-94c-2-2-2-4-2-6 0-3 0-5 2-7 2-1 4-2 6-2l60 0 0-94c0-2 1-4 2-6 2-2 4-2 6-2l52 0c2 0 4 0 6 2 1 2 2 4 2 6l0 94 60 0c2 0 4 1 6 3 1 1 2 3 2 6z m171-77c0-29-10-53-30-73-20-20-44-30-72-30l-291 0c-32 0-61 12-84 35-23 24-35 52-35 85 0 23 6 44 19 64 12 19 29 34 50 44-1 5-1 9-1 11 0 38 14 70 40 97 27 26 59 40 97 40 28 0 53-8 76-23 23-16 40-36 50-62 13 11 28 17 44 17 19 0 35-7 49-20 13-14 20-30 20-49 0-13-4-26-11-37 23-5 42-17 57-36 15-18 22-39 22-63z"/>
<glyph glyph-name="cog-gear" unicode="&#119;" d="M329 256c0 20-7 37-21 52-15 14-32 21-52 21-20 0-37-7-52-21-14-15-21-32-21-52 0-20 7-37 21-52 15-14 32-21 52-21 20 0 37 7 52 21 14 15 21 32 21 52z m146 31l0-63c0-3 0-5-2-7-1-2-3-3-6-4l-52-8c-4-10-8-19-12-26 7-9 17-22 31-39 2-2 3-5 3-7 0-3-1-5-3-7-5-7-14-17-28-31-14-13-23-20-27-20-2 0-5 1-7 3l-40 31c-8-5-17-8-26-11-3-26-6-44-8-53-1-6-5-8-10-8l-64 0c-2 0-5 0-7 2-2 2-3 4-3 6l-8 53c-9 3-18 6-26 10l-40-30c-2-2-4-3-7-3-3 0-5 1-7 3-24 22-40 38-47 48-2 2-2 4-2 7 0 2 0 4 2 6 3 4 8 11 14 19 7 9 12 16 16 21-5 9-9 19-12 28l-52 8c-3 0-5 1-6 3-2 2-2 4-2 7l0 63c0 3 0 5 2 7 1 2 3 3 5 4l53 8c3 8 7 17 12 26-8 11-18 24-31 39-2 3-3 5-3 7 0 2 1 4 3 7 5 7 14 17 28 30 14 14 23 21 27 21 2 0 5-1 7-3l40-31c8 5 17 8 26 11 3 26 6 44 8 53 1 6 5 8 10 8l64 0c2 0 5 0 7-2 2-2 3-4 3-6l8-53c9-3 18-6 26-10l40 30c2 2 4 3 7 3 3 0 5-1 7-3 25-23 41-39 47-49 2-1 2-3 2-6 0-2 0-4-2-6-3-4-8-11-14-19-7-9-12-16-16-21 5-9 9-18 12-28l52-8c3 0 5-1 6-3 2-2 2-4 2-7z"/>
<glyph glyph-name="flag" unicode="&#120;" d="M91 439c0-14-6-24-18-32l0-361c0-3-1-5-3-7-1-2-4-2-6-2l-18 0c-3 0-5 0-7 2-2 2-2 4-2 7l0 361c-13 8-19 18-19 32 0 10 4 19 11 26 7 7 16 10 26 10 10 0 19-3 26-10 7-7 10-16 10-26z m421-18l0-218c0-5-1-9-4-11-2-3-6-6-11-8-41-22-76-33-105-33-12 0-24 2-36 6-11 4-22 9-31 14-8 5-19 9-33 13-13 4-26 7-40 7-37 0-81-14-133-42-3-2-6-3-9-3-5 0-10 2-13 6-4 3-6 8-6 13l0 212c0 6 3 11 9 15 4 3 12 7 23 13 45 22 85 34 120 34 21 0 40-3 57-8 18-6 39-14 63-26 7-3 15-5 25-5 10 0 21 2 34 6 12 4 22 8 31 13 9 5 17 10 25 14 8 4 13 6 16 6 5 0 9-2 13-6 3-3 5-7 5-12z"/>
<glyph glyph-name="picture" unicode="&#121;" d="M438 342c0 0-51 0-51 0 0 0-63 77-63 77 0 0-110-77-110-77 0 0-92 0-92 0-18 0-33-7-46-20-13-13-19-29-19-47 0 0 0-81 0-81 0 0-56 151-56 151-3 13 1 22 11 27 0 0 349 127 349 127 12 3 20-1 25-13 0 0 52-144 52-144m55-46c5 0 10-2 14-6 3-4 5-9 5-15 0 0 0-241 0-241 0-6-2-10-5-15-4-4-9-6-14-6 0 0-371 0-371 0-5 0-10 2-14 6-4 5-5 9-5 15 0 0 0 241 0 241 0 6 1 11 5 15 4 4 9 6 14 6 0 0 371 0 371 0m-29-231c0 0 0 82 0 82 0 0-37 82-37 82 0 0-85-30-85-30 0 0-66-68-66-68 0 0-71 87-71 87 0 0-47-109-47-109 0 0 0-44 0-44 0 0 306 0 306 0"/>
<glyph glyph-name="video" unicode="&#122;" d="M507 384c0 0-51 0-51 0 0 0 0-51 0-51 0 0 51 0 51 0 0 0 0-51 0-51 0 0-51 0-51 0 0 0 0-52 0-52 0 0 51 0 51 0 0 0 0-51 0-51 0 0-51 0-51 0 0 0 0-51 0-51 0 0 51 0 51 0 0 0 0-31 0-31 0-5-2-10-6-14-4-4-9-6-15-6 0 0-460 0-460 0-6 0-11 2-15 6-4 4-6 9-6 14 0 0 0 31 0 31 0 0 51 0 51 0 0 0 0 51 0 51 0 0-51 0-51 0 0 0 0 51 0 51 0 0 51 0 51 0 0 0 0 52 0 52 0 0-51 0-51 0 0 0 0 51 0 51 0 0 51 0 51 0 0 0 0 51 0 51 0 0-51 0-51 0 0 0 0 31 0 31 0 6 2 11 6 15 4 3 9 5 15 5 0 0 460 0 460 0 6 0 11-2 15-5 4-4 6-9 6-15 0 0 0-31 0-31m-307-205c0 0 128 77 128 77 0 0-128 77-128 77 0 0 0-154 0-154"/>
<glyph glyph-name="upload" unicode="&#65;" d="M256 474c0 0 133-125 133-125 0 0-84 0-84 0 0 0 0-131 0-131 0 0-97 0-97 0 0 0 0 131 0 131 0 0-85 0-85 0 0 0 133 125 133 125m239-296c7-3 11-9 14-16 3-8 4-15 2-21 0 0-14-79-14-79-2-6-6-12-12-16-6-5-13-7-20-7 0 0-418 0-418 0-8 0-14 2-21 7-6 4-9 10-11 16 0 0-14 79-14 79-4 17 2 29 16 37 0 0 81 55 81 55 0 0 50 0 50 0 0 0-87-66-87-66 0 0 91 0 91 0 3 0 5-1 7-4 0 0 20-57 20-57 0 0 154 0 154 0 0 0 20 57 20 57 3 3 5 4 6 4 0 0 91 0 91 0 0 0-87 66-87 66 0 0 51 0 51 0 0 0 81-55 81-55"/>
<glyph glyph-name="email-envelope" unicode="&#66;" d="M512 309l0-227c0-12-4-23-13-32-9-9-20-13-33-13l-420 0c-13 0-24 4-33 13-9 9-13 20-13 32l0 227c8-9 18-17 29-25 69-47 116-79 142-98 11-8 20-15 26-19 7-4 16-9 27-14 12-4 22-7 32-7l0 0c10 0 20 3 32 7 11 5 20 10 27 14 6 4 15 11 26 19 33 23 80 56 142 98 11 8 21 16 29 25z m0 84c0-15-5-29-14-43-9-14-21-25-35-35-71-50-116-81-134-93-1-1-6-4-12-9-6-4-11-8-15-11-4-2-9-5-15-9-6-3-11-6-16-8-6-1-10-2-15-2l0 0c-5 0-9 1-15 2-5 2-10 5-16 8-6 4-11 7-15 9-4 3-9 7-15 11-6 5-11 8-12 9-18 12-43 30-75 52-33 23-52 36-59 41-12 8-23 19-33 33-11 14-16 27-16 39 0 15 4 27 12 37 8 10 19 15 34 15l420 0c13 0 23-5 32-14 9-9 14-19 14-32z"/>
<glyph glyph-name="heart" unicode="&#67;" d="M346 443c-36 0-69-17-90-44-21 27-54 44-90 44-63 0-114-51-114-114-1-68 32-108 58-140l6-7c31-39 128-108 132-111 2-1 5-2 8-2 3 0 6 1 8 2 4 3 101 72 132 111l6 7c26 32 59 72 59 140-1 63-52 114-115 114z"/>
<glyph glyph-name="home" unicode="&#68;" d="M428 318l-167 129c-4 4-11 4-16 0l-161-129c-3-2-5-6-5-10l0-233c0-7 6-13 13-13l96 0c7 0 13 6 13 13l0 143 110 0 0-143c0-7 6-13 13-13l96 0c7 0 13 6 13 13l0 233c0 4-2 8-5 10z"/>
<glyph glyph-name="info" unicode="&#69;" d="M256 448c-106 0-192-86-192-192 0-106 86-192 192-192 106 0 192 86 192 192 0 106-86 192-192 192z m20-299c0-3-3-6-7-6l-26 0c-4 0-7 3-7 6l0 124c0 4 3 7 7 7l26 0c4 0 7-3 7-7z m-20 159c-13 0-23 10-23 23 0 13 10 23 23 23 13 0 23-10 23-23 0-13-10-23-23-23z"/>
<glyph glyph-name="marker" unicode="&#70;" d="M256 459c-80 0-144-65-144-145 0-32 10-62 28-86l93-161c0-1 1-2 2-3l0 0 0 0c5-6 12-11 21-11 8 0 15 4 20 10l0-1 1 2c1 2 2 4 3 6l91 157c18 24 29 55 29 87 0 80-64 145-144 145z m-1-218c-40 0-72 32-72 71 0 40 32 71 72 71 39 0 71-31 71-71 0-39-32-71-71-71z"/>
<glyph glyph-name="microphone" unicode="&#71;" d="M386 260l0 0 0 1c0 0 0 0 0 0l0 73c0 11-8 19-19 19-11 0-19-8-19-19l0-73c0-51-41-92-92-92-51 0-92 41-92 92l0 73c0 11-8 19-19 19-11 0-19-8-19-19l0-74 0 0c0-65 48-119 111-128l0-28-69 0 0 0c-10 0-19-9-19-19 0-11 9-19 19-20l0 0 176 0c10 0 19 9 19 20 0 10-9 19-19 19l-69 0 0 28c63 9 111 63 111 128z m-196 1c0-36 30-65 66-65 36 0 66 29 66 65 0 1 0 1 0 2l0 0 0 119 0 0c-1 36-30 65-66 65-36 0-65-29-66-65l0 0 0-119 0 0c0-1 0-1 0-2z"/>
<glyph glyph-name="male-female" unicode="&#72;" d="M157 411c0-23-19-42-43-42-23 0-42 19-42 42 0 23 19 42 42 42 24 0 43-19 43-42z m38-54l0 0-152 0 0 0c-11 0-20-8-20-19l0 0 0-120 0 0c0-5 2-10 5-13 7-7 19-7 25 0 4 3 6 8 6 13l0 0 0 83 0 0c0 3 2 6 5 6 3 0 6-3 6-6l0 0 0-219c0-12 9-21 21-21 11 0 21 9 21 21l0 110 0 0c0 3 2 6 6 6 3 0 5-3 5-6l1 0 0-110c0-12 9-21 20-21 12 0 21 9 21 21l0 219c0 3 3 6 6 6 3 0 6-3 6-6l0-83 0 0c0-5 2-10 5-13 7-7 18-7 25 0 4 3 5 8 5 13l0 0 0 120c0 10-7 18-17 19z m218 54c0-24-19-43-43-43-23 0-42 19-42 43 0 23 19 42 42 42 24 0 43-19 43-42z m76-176l-28 106c0 0 0 0 0 0l-1 2 0 0c-3 8-10 14-19 14 0 0 0 0 0 0l0 0-134 0 0 0c-9 0-16-6-19-14l0 0 0-2c0 0-1 0-1 0l-28-106 0 0c0-1 0-2 0-3 0-10 8-18 18-18 8 0 14 5 17 11l0 0 21 78 0 0 0 0c1 2 3 4 6 4 2 0 4-2 5-4l0 0 0-1c0 0 0 0 0 0 0-1 0-1 0-1l0-1-33-124c-1-1-1-2-1-4l0 0 0 0c0 0 0 0 0 0 0-6 4-10 10-10l24 0 0-82c0-12 10-21 21-21 12 0 21 9 21 21l0 82 12 0 0-82c0-12 9-21 21-21 12 0 21 9 21 21l0 82 25 0c5 0 9 4 9 10 0 0 0 0 0 0l0 0 0 0c0 2 0 3-1 4l-33 124 0 0c0 1 0 1 0 2 0 3 2 5 6 5 2 0 4-2 5-4l0 0 21-78 0 0c3-6 9-11 17-11 10 0 18 8 18 18 0 1 0 2 0 3z"/>
<glyph glyph-name="male" unicode="&#73;" d="M295 410c0-23-19-42-42-42-24 0-43 19-43 42 0 23 19 42 43 42 23 0 42-19 42-42z m38-54l0 0-152 0 0 0c-11 0-20-9-20-20l0 0 0-120 0 0c0-4 2-9 6-12 7-7 18-7 25 0 3 3 5 8 5 12l0 0 0 84 0 0c0 3 3 6 6 6 3 0 5-3 5-6l0 0 0-219c0-12 10-21 21-21 12 0 21 9 21 21l0 110 0 0c0 3 3 6 6 6 3 0 6-3 6-6l0 0 0-110c0-12 9-21 21-21 11 0 21 9 21 21l0 219c0 3 2 6 5 6 3 0 6-3 6-6l0-84 0 0c0-4 2-9 5-12 7-7 19-7 26 0 3 3 5 8 5 12l0 0 0 120c0 11-8 19-18 20z"/>
<glyph glyph-name="record" unicode="&#74;" d="M256 446c-105 0-190-85-190-190 0-105 85-190 190-190 105 0 190 85 190 190 0 105-85 190-190 190z m0-252c-34 0-62 28-62 62 0 34 28 62 62 62 34 0 62-28 62-62 0-34-28-62-62-62z"/>
<glyph glyph-name="print" unicode="&#75;" d="M463 332c0 5-4 9-9 9l-67 0 0 110c0 5-5 10-10 10l-242 0c-5 0-10-5-10-10l0-110-67 0c0 0 0 0 0 0-5 0-9-4-9-9l0 0 0-188c0-5 4-10 9-10l67 0 0 79 262 0 0-79 67 0c5 0 9 5 9 10l0 188z m-102-33l-210 0 0 127c0 5 4 9 9 9l192 0c5 0 9-4 9-9l0-127z m-209-238c0-5 4-10 9-10l190 0c5 0 9 5 9 10l0 126-208 0z"/>
<glyph glyph-name="share" unicode="&#76;" d="M375 316c-8 0-15-1-22-4l-156 90c0 2 0 3 0 4 0 34-27 61-60 61-33 0-60-27-60-61 0-33 27-60 60-60 13 0 25 4 35 12l145-84c-1-6-2-12-2-18 0-6 1-12 2-18l-144-84c-10 7-23 12-36 12-33 0-60-27-60-60 0-34 27-61 60-61 33 0 60 27 60 61 0 1 0 2 0 3l157 91c6-3 13-4 21-4 33 0 60 27 60 60 0 33-27 60-60 60z"/>
<glyph glyph-name="shopping-cart" unicode="&#77;" d="M199 97c0-16-14-30-30-30-17 0-30 14-30 30 0 17 13 30 30 30 16 0 30-13 30-30z m212 0c0-16-14-30-31-30-16 0-30 14-30 30 0 17 14 30 30 30 17 0 31-13 31-30z m-35 132c7 0 13 4 16 10l0 0 75 130 0 0c1 2 2 5 2 7 0 10-8 18-18 18l-274 0 0 33c0 10-8 18-18 18l-97 0 0 0c0 0-1 0-1 0-9 0-16-7-17-16l-1 0 0-17c0-10 8-18 18-18 0 0 1 0 1 0l0 0 64 0 0-224 0 0c0-10 8-17 17-17 0 0 0 0 0 0l304 0 0 0c8 1 15 7 16 15l0 0 0 2c0 0 0 1 0 1 0 0 0 0 0 0l0 15c0 0 0 0 0 0 0 9-7 17-16 18l0 0-270 0 0 25 199 0z"/>
<glyph glyph-name="social-amazon" unicode="&#78;" d="M266 328c-22-2-44-4-65-11-44-13-67-43-66-87 0-39 23-65 63-70 25-2 49 2 70 19 6 5 11 10 17 14 8-9 16-18 25-27 5-6 10-6 16-1 11 10 22 19 33 29 6 5 7 9 1 15-12 15-17 32-17 51 1 35 1 70 0 104-1 27-15 47-39 58-38 16-76 16-113-1-26-11-41-31-47-58-2-9 0-12 9-13 13-2 26-4 39-5 7-1 11 1 13 8 4 21 25 32 45 29 13-2 23-10 25-22 1-10 1-21 2-31-2 0-3-1-3-1-3 0-5 0-8 0z m-1-101c-6-10-14-17-26-19-19-3-33 9-34 29-2 27 12 45 38 50 11 2 22 3 33 4 0-23 2-45-11-64z m121-78c-2-1-4-1-5-2-26-11-51-19-78-25-26-5-51-7-77-5-32 3-61 13-90 28-18 9-35 18-53 28-6 3-11 2-14-2-3-4-2-10 3-14 18-13 35-28 54-41 35-24 73-38 123-38 40 1 85 14 126 38 7 4 14 9 21 14 6 4 7 9 4 14-3 5-8 7-14 5z m38 39c-19 2-38 0-55-12-4-3-6-7-4-12 2-4 6-5 11-4 8 1 17 2 26 3 0 0 0 0 0 0 3 0 6 0 9 0 4 0 6-2 5-6-1-4-2-8-3-13-2-8-6-15-8-23 0-3 0-7 2-9 2-1 6-2 9-1 2 0 4 2 6 4 13 14 20 30 22 49 2 18-1 22-20 24z"/>
<glyph glyph-name="social-flickr" unicode="&#79;" d="M404 440l-296 0c-20 0-36-16-36-36l0-296c0-20 16-36 36-36l296 0c20 0 36 16 36 36l0 296c0 20-16 36-36 36z m-223-243c-33 0-59 27-59 60 0 33 26 60 59 60 33 0 60-27 60-60 0-33-27-60-60-60z m152 0c-33 0-60 27-60 60 0 33 27 60 60 60 33 0 60-27 60-60 0-33-27-60-60-60z"/>
<glyph glyph-name="social-google-plus" unicode="&#80;" d="M129 248c9-7 19-11 31-11 14 1 27 6 36 16 5 7 8 14 9 22 1 7 2 13 2 18 0 22-6 44-17 67-5 10-12 19-21 26-9 6-19 9-30 10-15-1-28-7-38-18-8-13-12-26-12-42 0-20 6-41 18-62 6-10 13-19 22-26z m34-84c-4 5-8 10-11 16-4 6-5 13-5 21 0 5 0 9 2 13 1 3 2 6 3 9-6 0-12-1-18-1-26 0-47 8-62 23l0-99c13 6 27 10 42 13 19 3 36 4 49 5z m15-16c-4 0-8 0-13 0-2 1-10 0-21-1-12-1-24-4-36-7-2-2-6-3-12-5-5-3-10-6-15-10-4-3-7-7-9-11l0-15c0-14 11-26 25-26l140 0c0 1 0 1 0 1 0 15-4 27-14 37-9 10-24 22-45 37z m237 291l-318 0c-14 0-25-12-25-26l0-35c1 2 3 4 5 6 16 13 32 21 49 25 17 3 33 5 47 5l111 0-34-20-34 0c3-2 7-5 12-9 4-5 8-10 12-16 4-6 7-13 10-21 3-9 4-18 4-29-1-20-5-36-13-48-5-5-9-11-14-16-5-4-10-9-16-14-3-4-6-8-9-12-3-5-5-10-5-16 0-6 2-10 5-14 3-4 6-7 8-10l19-15c12-10 22-20 31-32 8-12 13-27 13-46 0-8-1-15-3-23l145 0c14 0 25 12 25 26l0 314c0 14-11 26-25 26z m20-114l-58 0 0-58-29 0 0 58-58 0 0 29 58 0 0 58 29 0 0-58 58 0z"/>
<glyph glyph-name="social-hacker-news" unicode="&#81;" d="M404 440l-296 0c-20 0-36-16-36-36l0-296c0-20 16-36 36-36l296 0c20 0 36 16 36 36l0 296c0 20-16 36-36 36z m-132-198l0-88-27 0 0 88-65 119 30 0 29-57c8-16 14-28 21-43l0 0c6 14 13 27 21 43l30 57 30 0z"/>
<glyph glyph-name="social-instagram" unicode="&#82;" d="M348 280c0-51-41-92-92-92-51 0-92 41-92 92 0 14 3 28 9 40l-101 0 0-215c0-20 16-36 36-36l296 0c20 0 36 16 36 36l0 215-101 0c6-12 9-26 9-40z m56 163l-296 0c-20 0-36-16-36-36l0-72 111 0c16 23 43 37 73 37 30 0 57-14 73-37l111 0 0 72c0 20-16 36-36 36z m-303-91l-13 0 0 52c0 9 5 17 13 20l0-72z m22 0l-13 0 0 74 13 0z m22 0l-13 0 0 74 13 0z m22 52l0-52-13 0 0 74 13 0z m255-30c0-12-10-22-22-22l-36 0c-12 0-21 10-21 22l0 30c0 12 9 22 21 22l36 0c12 0 22-10 22-22z m-166-175c45 0 81 36 81 81 0 45-36 81-81 81-45 0-81-36-81-81 0-45 36-81 81-81z m0 145c36 0 65-28 65-64 0-36-29-65-65-65-36 0-65 29-65 65 0 36 29 64 65 64z"/>
<glyph glyph-name="social-reddit" unicode="&#83;" d="M485 261c0 29-24 53-53 53-12 0-24-5-34-13 0 0 0 0 0 0-35 22-80 36-131 38l30 85 75-18c0-24 20-43 43-43 24 0 44 19 44 43 0 24-20 43-44 43-18 0-33-11-39-27l-89 22-37-105c-53-1-100-15-136-38-10 8-22 13-34 13-30 0-53-24-53-53 0-18 9-34 24-44-1-5-1-11-1-16 0-76 92-138 206-138 113 0 206 62 206 138 0 5-1 10-2 15 16 10 25 27 25 45z m-159-68c-18 0-33 14-33 32 0 18 15 33 33 33 18 0 32-15 32-33 0-18-14-32-32-32z m6-56c-1-1-24-24-77-24-53 0-74 24-75 25-3 3-2 9 1 12 4 2 9 2 12-1 0-1 18-20 62-20 45 0 65 20 65 20 3 3 9 3 12 0 3-3 3-8 0-12z m-174 88c0 18 14 33 32 33 18 0 33-15 33-33 0-18-15-32-33-32-18 0-32 14-32 32z"/>
<glyph glyph-name="social-pinterest" unicode="&#84;" d="M256 456c-110 0-200-90-200-200 0-82 49-152 120-183-1 14 0 31 3 46 4 16 26 109 26 109 0 0-6 13-6 31 0 30 17 52 38 52 18 0 27-14 27-30 0-18-12-45-18-71-5-21 11-38 32-38 38 0 63 48 63 106 0 44-29 76-83 76-60 0-98-45-98-95 0-18 5-30 13-39 4-5 4-6 3-11-1-4-3-13-4-17-1-5-6-6-10-5-28 12-41 42-41 77 0 57 48 125 143 125 76 0 126-56 126-115 0-78-43-137-108-137-21 0-41 12-48 25 0 0-12-46-14-55-5-15-13-31-21-43 18-5 37-8 57-8 110 0 200 90 200 200 0 110-90 200-200 200z"/>
<glyph glyph-name="social-myspace" unicode="&#85;" d="M404 251c40 0 72 32 72 72 0 39-32 72-72 72-40 0-73-33-73-72 0-40 33-72 73-72z m-98 51c0 36-29 65-65 65-36 0-65-29-65-65 0-36 29-65 65-65 36 0 65 29 65 65z m-213-77c33 0 59 26 59 59 0 32-26 58-59 58-32 0-58-26-58-58 0-33 26-59 58-59z m0-13c-37 0-64-33-64-66l0-23c0-3 3-6 6-6l117 0c3 0 6 3 6 6l0 23c0 33-28 66-65 66z m148 11c-41 0-72-37-72-74l0-25c0-4 3-7 7-7l130 0c3 0 6 3 6 7l0 25c0 37-30 74-71 74z m163 11c-46 0-80-40-80-82l0-27c0-4 3-8 7-8l145 0c4 0 7 4 7 8l0 27c0 42-34 82-79 82z"/>
<glyph glyph-name="social-linkedin" unicode="&#86;" d="M413 440l-314 0c-15 0-27-12-27-26l0-316c0-14 12-26 27-26l314 0c15 0 27 12 27 26l0 316c0 14-12 26-27 26z m-232-314l-55 0 0 176 55 0z m-27 200c-18 0-32 14-32 32 0 17 14 32 32 32 17 0 31-15 31-32 0-18-14-32-31-32z m232-200l-55 0 0 86c0 20 0 46-28 46-29 0-33-22-33-45l0-87-55 0 0 176 53 0 0-24 1 0c7 14 25 28 51 28 56 0 66-36 66-83l0-97z"/>
<glyph glyph-name="social-twitter" unicode="&#87;" d="M453 378c-14-6-30-11-46-12 16 10 29 25 35 44-15-9-33-16-51-19-15 15-36 25-59 25-45 0-81-36-81-81 0-6 1-12 2-18-67 3-127 35-167 84-7-12-11-25-11-40 0-28 15-53 36-68-13 1-25 4-36 11 0-1 0-1 0-2 0-39 28-71 65-79-7-2-14-3-22-3-5 0-10 1-15 2 10-32 40-56 76-56-28-22-63-35-101-35-6 0-13 0-19 1 36-23 78-36 124-36 149 0 230 123 230 230 0 3 0 7 0 10 16 12 29 26 40 42z"/>
<glyph glyph-name="social-vimeo" unicode="&#88;" d="M405 440l-298 0c-19 0-35-16-35-35l0-298c0-19 16-35 35-35l298 0c19 0 35 16 35 35l0 298c0 19-16 35-35 35z m-24-117c-3-15-22-67-57-114-15-19-33-39-56-52-8-5-25-11-36-7-8 4-13 10-18 19-9 15-13 36-17 52-4 15-8 29-12 41-3 8-4 15-7 22-1 1-1 1-1 1 0 0 0 0 1-1-1 1-1 1-1 1 0 0 0 0 0 0 0 2-1 4-2 5-9 15-22 1-35 3-3 0-6 3-8 6-1 1 1 3-4 4l0 1c20 15 37 34 59 46 7 4 19 9 28 6 8-2 15-9 18-19 0 0 0 0 0 0 1 0 2-4 2-5 4-11 6-26 8-37 2-17 2-44 12-59l0 0c1 0 3-4 4-6 17-17 29 7 36 20 5 10 10 21 11 31 1 6 1 10 0 14-3 10-12 12-26 12-1 0-3 0-5 0 12 38 49 54 60 55 13 2 32 2 41-9 2-3 3-5 4-8 3-7 2-14 1-22z"/>
<glyph glyph-name="video-1" unicode="&#89;" d="M339 198l0-54c0-13-10-23-23-23l-242 0c-12 0-23 10-23 23l0 224c0 13 11 23 23 23l242 0c13 0 23-10 23-23l0-53 0 0 122 57 0-232z"/>
<glyph glyph-name="volume" unicode="&#90;" d="M404 425c0 0-1 0-1 0l0 0-9 10-1 0c-5 4-13 4-18-1l0 0-17-17 0 0c-4-5-4-13 0-18l0 0 1-1 9-9 0 1c0-1 0-1 0-1 74-73 74-193 1-267l0 1-9-9-1-1 0 0c-4-6-4-14 1-19l0 0 17-17 0 0c5-4 13-4 18 0l0 0 10 10-1 0c93 93 93 245 0 338z m-49-68c0 1 0 1 0 1l0 0-10 10 0 0c-6 4-13 4-18-1l0 0-1 0c0 0 0 0 0 0 0 0 0 0 0-1l-16-16c0 0 0 0 0 0 0 0 0 0 0 0l-1-1 0 0c-4-5-4-12 0-17l0 0 10-10 0 0c0 0 0 0 1 0 36-37 36-95 0-132l0 0-9-9c0 0 0 0 0 0l0 0-1-1 0 0c-4-5-4-13 1-18l0 0 18-18 0 0c5-4 12-4 17 0l0 0 10 10 0 0c55 57 55 147-1 203z m-85 33c-2 0-4 0-5-1l0 0-105-61 0 0-40-23-74 0 0 0c0 0 0 0 0 0-4 0-8-3-8-8l0-105c0-5 4-8 8-8 0 0 0 0 0 0l0 0 74 0 59-34 0 0 85-49c2-1 4-2 6-2 6 0 11 5 11 10 0 1 0 1 0 2l0 0 0 270 0 0c-1 5-5 9-11 9z"/>
<glyph glyph-name="volume-none" unicode="&#48;" d="M377 392l0 0c0 5-5 10-10 10-2 0-4-1-6-2l0 0-104-60 0 0-40-23-74 0 0 0c0 0 0 0 0 0-5 0-8-4-8-8l0-106c0-4 3-8 8-8 0 0 0 0 0 0l0 0 74 0 59-34 0 0 85-49c1-1 3-2 6-2 6 0 10 5 10 11 0 0 0 1 0 1l0 0z"/>
<glyph glyph-name="widget" unicode="&#49;" d="M453 290l-52 5c-4 12-9 25-15 36l33 41c4 4 4 11 0 15l-32 32c-3 2-5 3-8 3-3 0-5-1-7-3l-41-33c-12 6-24 11-36 15l-5 52c-1 6-6 10-11 10l-46 0c-5 0-10-4-11-10l-5-52c-12-4-24-9-36-15l-41 33c-2 2-4 3-7 3-3 0-5-1-8-3l-32-32c-4-4-4-11 0-15l33-41c-6-11-11-24-15-36l-52-5c-6-1-10-6-10-11l0-46c0-5 4-10 10-11l52-5c4-12 9-24 15-36l-33-41c-4-4-4-11 0-15l32-32c3-2 5-3 8-3 3 0 5 1 7 3l41 33c12-6 24-11 36-15l5-52c1-6 6-10 11-10l46 0c5 0 10 4 11 10l5 52c12 4 24 9 36 15l41-33c2-2 4-3 7-3 3 0 5 1 8 3l32 32c4 4 4 11 0 15l-33 41c6 12 11 24 15 36l52 5c6 1 10 6 10 11l0 46c0 5-4 10-10 11z m-197-95c-34 0-61 27-61 61 0 34 27 61 61 61 34 0 61-27 61-61 0-34-27-61-61-61z"/>
<glyph glyph-name="facebook-square" unicode="&#50;" d="M410 250l7 62-57 0 0 31c0 10 1 16 4 20 3 4 10 6 21 6l31 0 0 62-50 0c-29 0-49-7-62-20-13-14-19-34-19-61l0-38-37 0 0-62 37 0 0-182 75 0 0 182z m65 143l0-274c0-23-8-42-24-58-16-16-35-24-58-24l-274 0c-23 0-42 8-58 24-16 16-24 35-24 58l0 274c0 23 8 42 24 58 16 16 35 24 58 24l274 0c23 0 42-8 58-24 16-16 24-35 24-58z"/>
<glyph glyph-name="flickr" unicode="&#51;" d="M393 475c23 0 42-8 58-24 16-16 24-35 24-58l0-274c0-23-8-42-24-58-16-16-35-24-58-24l-274 0c-23 0-42 8-58 24-16 16-24 35-24 58l0 274c0 23 8 42 24 58 16 16 35 24 58 24z m-157-219c0 17-6 31-18 43-12 12-26 18-43 18-16 0-31-6-42-18-12-12-18-26-18-43 0-17 6-31 18-43 11-12 26-18 42-18 17 0 31 6 43 18 12 12 18 26 18 43z m161 0c0 17-6 31-18 43-11 12-26 18-42 18-17 0-31-6-43-18-12-12-18-26-18-43 0-17 6-31 18-43 12-12 26-18 43-18 16 0 31 6 42 18 12 12 18 26 18 43z"/>
<glyph glyph-name="instagram" unicode="&#52;" d="M426 105l0 185-39 0c4-12 6-25 6-38 0-24-6-46-18-66-13-20-29-36-50-48-21-12-44-18-69-18-37 0-69 13-96 39-27 26-40 57-40 93 0 13 2 26 6 38l-41 0 0-185c0-5 2-10 5-13 4-3 8-5 13-5l305 0c5 0 9 2 13 5 3 3 5 8 5 13z m-81 152c0 23-9 44-26 60-18 17-38 25-63 25-24 0-45-8-62-25-17-16-26-37-26-60 0-24 9-44 26-61 17-16 38-25 62-25 25 0 45 9 63 25 17 17 26 37 26 61z m81 103l0 47c0 5-2 10-6 14-4 4-8 6-14 6l-50 0c-5 0-10-2-14-6-4-4-5-9-5-14l0-47c0-6 1-10 5-14 4-4 9-6 14-6l50 0c6 0 10 2 14 6 4 4 6 8 6 14z m49 59l0-326c0-16-5-29-16-40-11-11-24-16-40-16l-326 0c-16 0-29 5-40 16-11 11-16 24-16 40l0 326c0 16 5 29 16 40 11 11 24 16 40 16l326 0c16 0 29-5 40-16 11-11 16-24 16-40z"/>
<glyph glyph-name="gears-setting" unicode="&#53;" d="M239 256c0 19-7 35-20 48-13 14-29 20-48 20-19 0-35-6-49-20-13-13-20-29-20-48 0-19 7-35 20-48 14-14 30-20 49-20 19 0 35 6 48 20 13 13 20 29 20 48z m205-137c0 10-4 18-10 24-7 7-15 11-24 11-10 0-18-4-24-11-7-6-11-14-11-24 0-9 4-17 10-24 7-6 15-10 25-10 9 0 17 4 24 10 6 7 10 15 10 24z m0 274c0 9-4 17-10 24-7 6-15 10-24 10-10 0-18-4-24-10-7-7-11-15-11-24 0-10 4-18 10-25 7-6 15-10 25-10 9 0 17 4 24 10 6 7 10 15 10 25z m-103-113l0-49c0-2 0-4-2-5-1-2-2-3-4-3l-41-6c-2-7-5-13-9-21 6-8 14-18 24-30 2-2 2-4 2-6 0-2 0-4-2-5-4-5-11-13-22-24-10-10-17-16-21-16-2 0-3 1-5 2l-31 24c-6-3-13-6-20-8-2-19-4-33-7-41-1-5-3-7-8-7l-49 0c-2 0-4 1-5 2-2 2-3 3-3 5l-6 41c-6 2-13 4-20 8l-32-24c-1-1-3-2-5-2-2 0-4 1-6 3-25 23-38 37-38 42 0 2 1 4 2 5 2 3 5 8 11 14 5 7 9 13 12 17-4 8-7 15-9 22l-41 6c-1 0-3 1-4 3-1 1-2 3-2 5l0 49c0 2 1 4 2 5 1 2 3 3 4 3l41 6c2 7 5 13 9 21-6 8-14 18-24 30-1 2-2 4-2 6 0 2 1 4 2 5 4 5 11 13 22 24 11 10 18 16 21 16 2 0 4-1 6-2l30-24c6 3 13 6 21 8 2 19 4 33 6 41 1 5 4 7 8 7l49 0c2 0 4-1 6-2 1-2 2-3 2-5l7-41c6-2 12-4 20-8l31 24c1 1 3 2 5 2 2 0 4-1 6-3 26-23 38-37 38-42 0-2 0-4-1-5-3-3-6-8-12-15-5-6-9-12-12-16 4-8 7-16 9-22l41-6c2 0 3-1 4-3 2-1 2-3 2-5z m171-142l0-37c0-3-13-6-40-8-2-5-5-10-8-14 9-20 14-33 14-37 0-1 0-1-1-2-22-13-33-19-33-19-2 0-6 4-13 13-6 8-11 14-13 18-4-1-7-1-8-1-2 0-5 0-8 1-3-4-8-10-14-18-7-9-11-13-13-13 0 0-11 6-33 19 0 1-1 1-1 2 0 4 5 17 14 37-3 4-6 9-8 14-27 2-40 5-40 8l0 37c0 3 13 6 40 8 2 6 5 10 8 14-9 20-14 33-14 37 0 1 1 1 1 2 1 0 4 2 10 5 5 3 10 6 15 9 5 3 8 5 8 5 2 0 6-5 13-13 6-8 11-14 14-18 3 1 6 1 8 1 1 0 4 0 8-1 9 13 17 23 24 30l2 1c0 0 11-7 33-19 1-1 1-1 1-2 0-4-5-17-14-37 3-4 6-8 8-14 27-2 40-5 40-8z m0 273l0-37c0-3-13-6-40-8-2-5-5-10-8-14 9-20 14-33 14-37 0-1 0-1-1-2-22-13-33-19-33-19-2 0-6 4-13 13-6 8-11 14-13 18-4-1-7-1-8-1-2 0-5 0-8 1-3-4-8-10-14-18-7-9-11-13-13-13 0 0-11 6-33 19 0 1-1 1-1 2 0 4 5 17 14 37-3 4-6 9-8 14-27 2-40 5-40 8l0 37c0 3 13 6 40 8 2 6 5 10 8 14-9 20-14 33-14 37 0 1 1 1 1 2 1 0 4 2 10 5 5 4 10 7 15 9 5 3 8 5 8 5 2 0 6-4 13-13 6-8 11-14 14-18 3 1 6 1 8 1 1 0 4 0 8-1 9 13 17 23 24 30l2 1c0 0 11-7 33-19 1-1 1-1 1-2 0-4-5-17-14-37 3-4 6-8 8-14 27-2 40-5 40-8z"/>
<glyph glyph-name="facebook" unicode="&#54;" d="M292 353l74 0-9-81-65 0 0-235-97 0 0 235-49 0 0 81 49 0 0 49c0 35 8 61 24 79 17 18 44 26 81 26l65 0 0-81-40 0c-8 0-14 0-18-2-5-1-8-3-10-6-2-4-3-7-4-10 0-3-1-8-1-14z"/>
<glyph glyph-name="group" unicode="&#55;" d="M158 256c-29-1-52-12-71-34l-35 0c-15 0-27 3-37 11-10 7-15 17-15 31 0 63 11 94 33 94 1 0 5-1 12-5 6-4 15-8 26-12 10-3 21-5 31-5 12 0 24 2 36 6-1-7-1-13-1-18 0-24 7-47 21-68z m286-170c0-21-7-38-20-50-13-13-30-19-51-19l-234 0c-21 0-38 6-51 19-13 12-20 29-20 50 0 10 1 19 1 28 1 9 2 18 4 29 2 10 4 20 7 29 3 9 7 17 11 26 5 8 11 15 17 21 6 6 14 11 23 15 9 3 19 5 30 5 1 0 5-2 11-6 6-4 12-8 19-13 8-4 17-9 29-12 12-4 24-6 36-6 12 0 24 2 36 6 12 3 21 8 29 12 7 5 13 9 19 13 6 4 10 6 11 6 11 0 21-2 30-5 9-4 17-9 23-15 6-6 12-13 17-21 4-9 8-17 11-26 3-9 5-19 7-29 2-11 3-20 4-29 0-9 1-18 1-28z m-273 341c0-19-7-35-20-49-14-13-30-20-49-20-18 0-35 7-48 20-13 14-20 30-20 49 0 19 7 35 20 48 13 13 30 20 48 20 19 0 35-7 49-20 13-13 20-29 20-48z m187-103c0-28-10-52-30-72-20-20-44-30-72-30-28 0-52 10-72 30-20 20-30 44-30 72 0 29 10 53 30 73 20 20 44 30 72 30 28 0 52-10 72-30 20-20 30-44 30-73z m154-60c0-14-5-24-15-31-10-8-22-11-37-11l-35 0c-19 22-42 33-71 34 14 21 21 44 21 68 0 5 0 11-1 18 12-4 24-6 36-6 10 0 21 2 31 5 11 4 20 8 26 12 7 4 11 5 12 5 22 0 33-31 33-94z m-34 163c0-19-7-35-20-49-13-13-30-20-48-20-19 0-35 7-49 20-13 14-20 30-20 49 0 19 7 35 20 48 14 13 30 20 49 20 18 0 35-7 48-20 13-13 20-29 20-48z"/>
<glyph glyph-name="google-plus" unicode="&#56;" d="M269 93c0 4-1 8-2 12-1 4-1 7-2 10-1 3-3 7-5 10-3 4-5 6-6 9-2 2-5 5-8 8-3 4-6 6-8 8-2 1-5 4-9 7-4 3-7 5-9 6-1 2-5 4-9 7-5 3-8 5-9 6-3 0-8 1-14 1-11 0-21-1-31-2-9-2-20-4-30-8-11-3-20-7-28-13-8-5-15-12-20-21-5-9-8-19-8-31 0-13 4-24 10-34 7-11 16-19 27-24 11-6 22-11 34-13 12-3 24-5 37-5 11 0 22 1 32 4 10 2 19 6 28 11 9 5 16 12 22 21 5 9 8 19 8 31z m-35 247c0 11-1 23-4 36-4 13-8 25-14 37-6 12-14 22-24 30-10 8-21 12-34 12-18 0-31-7-41-20-10-13-15-29-15-47 0-9 1-18 4-28 2-10 5-20 10-30 4-10 10-19 16-27 6-8 13-14 22-19 9-5 18-7 28-7 18 0 32 5 40 17 8 11 12 27 12 46z m-37 135l125 0-39-22-38 0c13-9 24-21 31-36 7-16 11-32 11-48 0-15-2-27-6-38-5-11-10-20-16-26-7-7-13-13-19-19-7-5-12-11-16-17-5-6-7-13-7-20 0-5 2-9 5-14 3-5 7-9 12-14 5-4 11-9 17-14 6-4 12-10 18-15 6-6 12-13 17-19 5-7 9-15 12-25 3-9 5-19 5-30 0-30-13-57-40-81-29-25-69-37-120-37-11 0-23 1-34 3-12 2-23 5-35 9-12 5-22 10-31 17-9 7-16 15-22 25-6 11-9 22-9 35 0 12 4 25 11 39 6 12 15 22 27 31 12 9 26 16 42 21 15 4 30 8 44 10 14 2 28 3 43 4-12 16-18 30-18 42 0 3 0 5 0 7 1 2 1 4 2 6 0 1 1 3 2 6 1 2 1 4 2 6-8-1-14-2-20-2-29 0-53 10-73 28-20 19-31 43-31 71 0 26 9 50 28 71 18 21 40 35 66 41 18 4 36 5 54 5z m297-73l0-36-73 0 0-73-37 0 0 73-73 0 0 36 73 0 0 73 37 0 0-73z"/>
<glyph glyph-name="linkedin-square" unicode="&#57;" d="M104 108l66 0 0 198-66 0z m71 259c-1 10-4 19-11 25-6 6-15 10-26 10-11 0-20-4-27-10-7-6-11-15-11-25 0-9 4-17 10-24 7-7 16-10 27-10l0 0c11 0 20 3 27 10 7 7 11 15 11 24z m167-259l66 0 0 114c0 29-7 51-21 66-14 15-32 23-55 23-26 0-46-11-60-34l1 0 0 29-66 0c0-12 0-78 0-198l66 0 0 111c0 7 0 12 2 16 2 7 7 12 12 17 6 5 13 7 22 7 22 0 33-15 33-45z m133 285l0-274c0-23-8-42-24-58-16-16-35-24-58-24l-274 0c-23 0-42 8-58 24-16 16-24 35-24 58l0 274c0 23 8 42 24 58 16 16 35 24 58 24l274 0c23 0 42-8 58-24 16-16 24-35 24-58z"/>
<glyph glyph-name="linkedin" unicode="&#33;" d="M136 333l0-283-94 0 0 283z m6 88c0-14-4-26-14-35-10-9-23-14-39-14l0 0c-16 0-29 5-38 14-10 9-14 21-14 35 0 14 4 26 14 35 10 9 23 14 39 14 16 0 28-5 38-14 9-9 14-21 14-35z m333-208l0-163-94 0 0 152c0 20-3 35-11 47-8 11-20 17-36 17-12 0-22-4-30-10-9-7-15-15-19-25-2-5-3-13-3-23l0-158-94 0c1 76 1 138 1 185 0 47 0 76 0 85l-1 13 94 0 0-41 0 0c4 6 7 12 11 16 4 5 10 10 17 15 6 5 15 10 24 13 10 3 21 4 33 4 33 0 59-11 79-32 20-22 29-54 29-95z"/>
<glyph glyph-name="mic" unicode="&#34;" d="M421 311l0-37c0-42-14-78-43-110-28-31-62-49-104-53l0-38 73 0c5 0 10-2 13-5 4-4 6-8 6-13 0-5-2-9-6-13-3-4-8-5-13-5l-182 0c-5 0-10 1-13 5-4 4-6 8-6 13 0 5 2 9 6 13 3 3 8 5 13 5l73 0 0 38c-42 4-76 22-104 53-29 32-43 68-43 110l0 37c0 5 2 9 6 13 3 3 8 5 13 5 5 0 9-2 13-5 3-4 5-8 5-13l0-37c0-35 13-65 38-90 25-25 55-38 90-38 35 0 65 13 90 38 25 25 38 55 38 90l0 37c0 5 2 9 5 13 4 3 8 5 13 5 5 0 10-2 13-5 4-4 6-8 6-13z m-74 110l0-147c0-25-9-46-26-64-18-18-40-27-65-27-25 0-47 9-65 27-17 18-26 39-26 64l0 147c0 25 9 46 26 64 18 18 40 27 65 27 25 0 47-9 65-27 17-18 26-39 26-64z"/>
<glyph glyph-name="quote-right" unicode="&#35;" d="M238 421l0-202c0-19-4-38-12-56-8-18-18-34-31-47-13-13-29-24-47-31-18-8-37-12-57-12l-18 0c-5 0-9 2-13 6-3 3-5 7-5 12l0 37c0 5 2 9 5 13 4 3 8 5 13 5l18 0c21 0 38 7 52 22 14 14 22 31 22 51l0 10c0 7-3 14-8 19-6 5-12 8-20 8l-64 0c-15 0-28 5-39 16-10 11-16 24-16 39l0 110c0 15 6 28 16 38 11 11 24 16 39 16l110 0c15 0 28-5 39-16 10-10 16-23 16-38z m256 0l0-202c0-19-4-38-12-56-8-18-18-34-31-47-13-13-29-24-47-31-18-8-37-12-57-12l-18 0c-5 0-9 2-13 6-3 3-5 7-5 12l0 37c0 5 2 9 5 13 4 3 8 5 13 5l18 0c21 0 38 7 52 22 14 14 22 31 22 51l0 10c0 7-3 14-8 19-6 5-12 8-20 8l-64 0c-15 0-28 5-39 16-10 11-16 24-16 39l0 110c0 15 6 28 16 38 11 11 24 16 39 16l110 0c15 0 28-5 39-16 10-10 16-23 16-38z"/>
<glyph glyph-name="quote-left" unicode="&#36;" d="M238 238l0-110c0-15-6-28-16-39-11-11-24-16-39-16l-110 0c-15 0-28 5-39 16-10 11-16 24-16 39l0 201c0 20 4 39 12 57 8 18 18 33 31 47 13 13 29 23 47 31 18 8 37 11 57 11l18 0c5 0 9-1 13-5 3-4 5-8 5-13l0-36c0-5-2-10-5-13-4-4-8-6-13-6l-18 0c-21 0-38-7-52-21-14-14-22-32-22-52l0-9c0-8 3-14 8-19 6-6 12-8 20-8l64 0c15 0 28-6 39-16 10-11 16-24 16-39z m256 0l0-110c0-15-6-28-16-39-11-11-24-16-39-16l-110 0c-15 0-28 5-39 16-10 11-16 24-16 39l0 201c0 20 4 39 12 57 8 18 18 33 31 47 13 13 29 23 47 31 18 8 37 11 57 11l18 0c5 0 9-1 13-5 3-4 5-8 5-13l0-36c0-5-2-10-5-13-4-4-8-6-13-6l-18 0c-21 0-38-7-52-21-14-14-22-32-22-52l0-9c0-8 3-14 8-19 6-6 12-8 20-8l64 0c15 0 28-6 39-16 10-11 16-24 16-39z"/>
<glyph glyph-name="photo" unicode="&#37;" d="M171 341c0-14-5-26-15-36-10-10-22-15-37-15-14 0-26 5-36 15-10 10-15 22-15 36 0 15 5 27 15 37 10 10 22 15 36 15 15 0 27-5 37-15 10-10 15-22 15-37z m273-102l0-120-376 0 0 52 86 85 42-43 137 137z m25 188l-426 0c-3 0-5-1-6-3-2-2-3-4-3-6l0-324c0-2 1-4 3-6 1-2 3-3 6-3l426 0c3 0 5 1 6 3 2 2 3 4 3 6l0 324c0 2-1 4-3 6-1 2-3 3-6 3z m43-9l0-324c0-12-4-22-13-30-8-9-18-13-30-13l-426 0c-12 0-22 4-30 13-9 8-13 18-13 30l0 324c0 12 4 22 13 30 8 9 18 13 30 13l426 0c12 0 22-4 30-13 9-8 13-18 13-30z"/>
<glyph glyph-name="video-camera" unicode="&#38;" d="M512 411l0-310c0-8-4-14-11-17-3-1-5-2-7-2-5 0-10 2-13 6l-115 115 0-48c0-22-8-42-24-58-17-16-36-24-59-24l-201 0c-22 0-42 8-58 24-16 16-24 36-24 58l0 202c0 22 8 42 24 58 16 16 36 24 58 24l201 0c23 0 42-8 59-24 16-16 24-36 24-58l0-48 115 115c3 4 8 6 13 6 2 0 4-1 7-2 7-3 11-9 11-17z"/>
<glyph glyph-name="youtube-play" unicode="&#39;" d="M366 256c0 7-3 12-9 15l-146 92c-6 4-12 4-19 0-6-3-9-8-9-16l0-182c0-8 3-13 9-16 3-2 6-3 9-3 4 0 7 1 10 3l146 92c6 3 9 8 9 15z m146 0c0-18 0-33 0-43 0-10-1-23-3-39-1-16-3-30-6-42-3-14-10-26-20-35-10-10-22-15-35-17-43-4-106-7-192-7-86 0-149 3-192 7-13 2-25 7-35 17-10 9-17 21-20 35-3 12-5 26-6 42-2 16-3 29-3 39 0 10 0 25 0 43 0 18 0 33 0 43 0 10 1 23 3 39 1 16 3 30 6 42 3 14 10 26 20 35 10 10 22 15 35 17 43 4 106 7 192 7 86 0 149-3 192-7 13-2 25-7 35-17 10-9 17-21 20-35 3-12 5-26 6-42 2-16 3-29 3-39 0-10 0-25 0-43z"/>
<glyph glyph-name="talk-chat-2" unicode="&#40;" d="M402 293c0-27-9-51-27-74-17-22-42-40-73-53-31-13-64-20-101-20-16 0-33 2-50 5-24-17-50-29-80-37-6-1-15-3-24-4l-1 0c-2 0-4 0-6 2-2 2-3 4-3 6 0 1 0 1 0 2 0 1 0 1 0 2 0 0 0 1 0 1l1 2c0 0 0 0 1 1 1 1 1 2 1 2 0 0 1 0 1 1 1 1 2 2 2 2 1 1 3 3 6 7 4 3 6 6 8 8 1 2 3 5 6 8 3 4 5 8 7 11 2 4 4 8 6 13-24 14-42 31-56 51-13 20-20 41-20 64 0 26 9 51 27 73 18 22 42 40 73 53 31 13 65 20 101 20 37 0 70-7 101-20 31-13 56-31 73-53 18-22 27-47 27-73z m110-74c0-22-7-44-20-64-14-20-32-36-56-50 2-5 4-9 6-13 2-4 4-7 7-11 3-3 5-6 6-8 2-2 4-5 8-8 3-4 5-6 6-8 1 0 1 0 2-1 0-1 1-1 1-1 0-1 1-1 1-2 0 0 1-1 1-1l1-2c0 0 0 0 0-1 1-2 1-2 0-2 0 0 0-1 0-2 0-3-2-5-4-6-1-2-4-3-6-2-9 1-18 2-24 4-30 8-56 20-80 37-17-3-34-5-50-5-52 0-97 13-135 38 11-1 19-1 25-1 31 0 60 4 88 13 29 8 54 20 76 36 24 18 42 38 55 61 12 23 19 47 19 73 0 14-2 29-7 43 25-14 44-30 59-51 14-20 21-42 21-66z"/>
<glyph glyph-name="talk-chat" unicode="&#41;" d="M512 256c0-33-11-64-34-92-23-28-54-50-93-66-40-17-83-25-129-25-13 0-27 1-41 2-38-33-82-56-132-69-9-2-20-4-32-6-4 0-7 0-9 3-3 2-4 4-5 8l0 0c-1 1-1 2 0 4 0 1 0 2 0 2 0 1 1 2 2 3l1 3c0 0 1 1 2 2 2 2 2 3 3 3 1 1 4 5 8 10 5 5 8 8 10 10 2 3 5 6 9 12 4 5 7 10 9 14 3 5 5 10 8 17 3 7 5 14 8 22-30 17-54 38-71 63-17 25-26 51-26 80 0 25 7 48 20 71 14 23 32 42 55 58 23 17 50 30 82 39 31 10 64 15 99 15 46 0 89-8 129-25 39-16 70-38 93-66 23-28 34-59 34-92z"/>
<glyph glyph-name="shopping-cart-1" unicode="&#42;" d="M201 73c0-10-3-19-11-26-7-7-15-10-25-10-11 0-19 3-26 10-7 7-11 16-11 26 0 10 4 19 11 26 7 7 15 11 26 11 10 0 18-4 25-11 8-7 11-16 11-26z m256 0c0-10-3-19-11-26-7-7-15-10-25-10-11 0-19 3-26 10-7 7-11 16-11 26 0 10 4 19 11 26 7 7 15 11 26 11 10 0 18-4 25-11 8-7 11-16 11-26z m37 311l0-146c0-5-2-9-5-12-3-4-7-6-12-7l-298-34c0-2 1-4 1-7 1-2 2-5 2-7 1-2 1-5 1-6 0-3-2-10-7-19l263 0c5 0 9-2 13-5 3-4 5-8 5-13 0-5-2-9-5-13-4-3-8-5-13-5l-293 0c-5 0-9 2-13 5-3 4-5 8-5 13 0 3 1 6 3 11 2 5 5 11 9 17 3 7 5 10 5 11l-50 235-58 0c-5 0-10 2-13 6-4 3-6 8-6 13 0 5 2 9 6 12 3 4 8 6 13 6l73 0c3 0 5-1 8-2 2-1 4-3 6-4 1-2 2-4 3-7 1-3 2-6 2-8 1-2 1-5 2-8 1-4 1-6 1-8l343 0c5 0 10-2 13-5 4-4 6-8 6-13z"/>
<glyph glyph-name="prize-award" unicode="&#43;" d="M149 260c-14 31-21 66-21 106l-73 0 0-28c0-15 9-30 27-46 18-16 40-27 67-32z m308 78l0 28-73 0c0-40-7-75-21-106 27 5 49 16 67 32 18 16 27 31 27 46z m37 37l0-37c0-13-4-27-12-41-8-13-19-26-32-37-14-11-30-20-50-28-19-7-40-11-61-12-8-11-17-20-27-27-8-7-13-14-15-21-3-7-4-16-4-26 0-10 2-19 8-26 6-7 15-10 28-10 14 0 27-5 38-13 11-9 17-20 17-33l0-18c0-3-1-5-3-7-1-2-3-2-6-2l-238 0c-3 0-5 0-6 2-2 2-3 4-3 7l0 18c0 13 6 24 17 33 11 8 24 13 38 13 13 0 22 3 28 10 6 7 8 16 8 26 0 10-1 19-4 26-2 7-7 14-15 21-10 7-19 16-27 27-21 1-42 5-61 12-20 8-36 17-50 28-13 11-24 24-32 37-8 14-12 28-12 41l0 37c0 7 3 14 8 19 6 6 12 8 20 8l82 0 0 28c0 12 4 23 13 32 9 9 20 13 33 13l164 0c13 0 24-4 33-13 9-9 13-20 13-32l0-28 82 0c8 0 14-2 20-8 5-5 8-12 8-19z"/>
<glyph glyph-name="ptint" unicode="&#44;" d="M128 73l256 0 0 73-256 0z m0 183l256 0 0 110-46 0c-7 0-14 2-19 8-5 5-8 12-8 19l0 46-183 0z m329-18c0 5-2 9-5 13-4 3-8 5-13 5-5 0-9-2-13-5-4-4-5-8-5-13 0-5 1-10 5-13 4-4 8-6 13-6 5 0 9 2 13 6 3 3 5 8 5 13z m37 0l0-119c0-3-1-5-3-7-2-1-4-2-6-2l-64 0 0-46c0-8-3-14-8-19-6-6-12-8-20-8l-274 0c-8 0-14 2-20 8-5 5-8 11-8 19l0 46-64 0c-2 0-4 1-6 2-2 2-3 4-3 7l0 119c0 15 6 28 16 38 11 11 24 17 39 17l18 0 0 155c0 8 3 14 8 19 6 6 12 8 20 8l192 0c7 0 16-1 25-5 9-4 16-9 22-14l43-43c5-6 10-13 14-22 4-9 6-18 6-25l0-73 18 0c15 0 28-6 39-17 10-10 16-23 16-38z"/>
<glyph glyph-name="linkedin-alt" unicode="&#45;" d="M450 483l-393 0c-19 0-34-14-34-33l0-394c0-19 15-34 34-34l393 0c19 0 34 15 34 34l0 394c0 19-15 33-34 33z m-287-385l-70 0 0 208 70 0z m-35 236l0 0c-24 0-39 16-39 36 0 20 16 36 39 36 24 0 39-16 39-36 0-20-15-36-39-36z m286-236l-70 0 0 111c0 28-10 47-35 47-19 0-31-13-36-25-2-5-2-11-2-17l0-116-70 0c0 0 1 188 0 208l70 0 0-30c9 14 26 35 63 35 45 0 80-30 80-94z m-143 177c0 1 0 1 0 1l0-1z"/>
<glyph glyph-name="linkedin-1" unicode="&#46;" d="M486 206l0-170-98 0 0 159c0 40-15 67-50 67-28 0-44-18-51-36-3-7-3-15-3-24l0-166-99 0c0 0 1 269 0 297l99 0 0-42c-1 0-1-1-1-1l1 0 0 1c13 20 36 49 89 49 65 0 113-43 113-134z m-404 270c-34 0-56-22-56-51 0-29 21-52 54-52l1 0c34 0 56 23 56 52-1 29-22 51-55 51z m-51-440l99 0 0 297-99 0z"/>
<glyph glyph-name="star" unicode="&#47;" d="M480 320l-157 20-67 140-67-140-157-20 115-104-29-152 138 74 139-74-30 152z"/>
<glyph glyph-name="asterisk" unicode="&#58;" d="M422 204c0 0 0 1 0 1l0 0-88 51 89 51 0 0c4 3 6 10 3 14 0 0 0 1 0 1l0 0-28 49 0 0c-3 4-9 6-14 3l0 0-89-51 0 103 0 0c0 6-5 10-11 10 0 0 0 0 0 0l0 0-56 0 0 0c-6 0-10-5-10-10l0 0 0-103-90 52 0 0c-5 2-11 0-14-4 0 0 0-1 0-1l0 0-28-49 0 0c-3-4-1-10 4-13l0 0 0 0c0 0 0 0 0 0 0 0 0-1 0-1l89-51-87-50c-1-1-2-1-2-1-5-3-7-9-4-14l0 0 29-51 0 0c3-4 9-5 13-2 0 0 0 0 0 0l1 0 89 51 0-100c-1-1-1-2-1-3 0-5 5-10 10-10l0 0 59 0 0 0c5 1 8 5 8 10 0 0 0 0 0 0l1 0 0 103 87-50c0-1 1-1 2-1 4-3 11-2 14 3l0 0 28 49c0 0 0 0 0 0 0 0 0 0 0 0l1 2 0 0c1 5 0 10-5 12z"/>
<glyph glyph-name="star-1" unicode="&#59;" d="M343 225l88 85-121 18-54 109-54-109-121-18 88-85-21-120 108 57 108-57z m151 102c0-4-3-9-8-14l-103-101 24-143c0-1 0-3 0-5 0-10-3-15-11-15-4 0-8 2-12 4l-128 67-128-67c-4-2-8-4-12-4-4 0-7 2-9 5-2 2-3 6-3 10 0 1 0 3 1 5l24 143-104 101c-4 6-7 10-7 14 0 7 6 12 16 13l144 21 64 130c4 8 8 12 14 12 6 0 10-4 14-12l64-130 144-21c10-1 16-6 16-13z"/>
<glyph glyph-name="star-2" unicode="&#60;" d="M392 10c-8 0-17 2-25 7l-83 44c-14 7-42 7-56 0l-83-44c-20-11-41-8-53 6-5 6-11 19-8 39l16 92c3 16-6 41-17 53l-67 65c-14 14-20 30-15 45 5 14 19 24 38 27l93 14c16 2 37 18 45 32l41 84c9 18 23 28 38 28 15 0 29-10 38-28l41-84c8-14 29-30 45-32l93-14c19-3 33-13 38-27 5-15-1-31-15-45l-67-65c-11-12-20-37-17-53l16-92c3-20-3-33-8-39-7-8-17-13-28-13z m-136 99c18 0 35-4 48-11l82-43-16 92c-5 30 8 69 30 90l66 65-92 13c-30 5-63 29-77 56l-41 84-41-84c-14-27-47-51-77-56l-92-13 66-65c22-21 35-60 30-90l-16-92 82 43c13 7 30 11 48 11z"/>
<glyph glyph-name="pencil" unicode="&#61;" d="M455 362l-93 93c-5 5-14 5-20 0l-253-254 1 0-1 0-35-130 0 0c-2-4 0-10 3-14 5-4 11-5 16-2l0 0 128 34 0 0 0 0 254 254c5 5 5 14 0 19z m-359-265l21 76 56-56z"/>
<glyph glyph-name="edit-modify-streamline" unicode="&#62;" d="M384 267c-6 0-11-5-11-11l0-235-352 0 0 427 288 0c6 0 11 5 11 11 0 6-5 10-11 10l-309 0 0-469 395 0 0 256c0 6-5 11-11 11z m126 224c-6 13-18 21-31 21-8 0-16-3-22-10l-30-30c0 0 0 0 0 0 0 0 0 0 0 0l-174-173c0-1-1-2-2-3l-30-60c-2-5-1-10 2-13 2-2 5-3 8-3 1 0 3 0 5 1l60 30c1 1 2 2 3 2l203 204c10 10 13 22 8 34z m-225-221l-30-15 15 30 164 165 16-16z m202 202l-22-22-15 15 22 22c2 3 5 4 7 4 5 0 9-4 11-8 2-4 1-7-3-11z"/>
<glyph glyph-name="pencil-1" unicode="&#63;" d="M424 425c11-11 19-22 24-33 5-11 8-19 8-24 0 0 0-9 0-9 0 0-129-129-129-129 0 0-149-147-149-147 0 0-122-27-122-27 0 0 26 123 26 123 0 0 148 148 148 148 0 0 129 129 129 129 19 4 40-6 65-31m-253-328c0 0 12 13 12 13 0 15-9 31-26 48-8 7-16 13-23 18-8 4-14 6-18 6 0 0-7 1-7 1 0 0-12-12-12-12 0 0-9-41-9-41 10-5 17-11 24-17 8-9 14-17 18-25 0 0 41 9 41 9"/>
<glyph glyph-name="pencil-2" unicode="&#64;" d="M140 73l26 26-67 67-26-26 0-30 37 0 0-37z m150 265c0 4-2 7-7 7-1 0-3-1-4-2l-155-155c-2-2-2-3-2-5 0-4 2-6 6-6 2 0 4 0 5 2l155 154c1 2 2 3 2 5z m-16 55l119-119-238-237-118 0 0 118z m195-27c0-10-3-19-10-26l-48-47-118 118 47 48c7 7 15 10 26 10 10 0 18-3 26-10l67-67c7-8 10-16 10-26z"/>
<glyph glyph-name="pencil-square" unicode="&#91;" d="M152 195l43-43-14-15-16 0 0 28-28 0 0 16z m118 112c3-3 3-5-1-9l-83-83c-3-3-6-3-8-1-3 3-3 6 1 9l83 83c3 3 6 4 8 1z m-78-197l155 155-82 82-155-155 0-82z m174 173l26 27c5 5 8 12 8 19 0 8-3 14-8 20l-43 43c-6 5-12 8-20 8-7 0-14-3-19-8l-27-26z m109 110l0-274c0-23-8-42-24-58-16-16-35-24-58-24l-274 0c-23 0-42 8-58 24-16 16-24 35-24 58l0 274c0 23 8 42 24 58 16 16 35 24 58 24l274 0c23 0 42-8 58-24 16-16 24-35 24-58z"/>
<glyph glyph-name="pen" unicode="&#93;" d="M470 471c-26 26-61 41-95 41-29 0-55-11-75-30l-77-78c-1-1-1-1-1-1 0 0 0 0 0-1l0 0-166-166c-7-8-13-17-16-27l-38-137c0 0-2-11-2-16 0-31 25-56 56-56 6 0 18 3 19 3l135 36c11 3 20 8 28 16l244 246c44 45 39 119-12 170z m-214-340c-1 15-5 29-11 42l151 152c9-30 4-60-16-80 0-1 0-1 0-1l0 0-124-125c0 4 1 8 0 12z m-19 57c-6 10-13 19-21 28-10 9-21 17-33 23l152 153c12-5 24-13 34-23 9-9 15-18 20-28z m-69 59c-15 6-31 9-46 10l123 124c19 18 46 23 74 17z m-101-213c-2 0-7-2-11-2-13 0-24 11-24 24 0 3 1 7 2 9l16 61c19 1 38-7 54-22 16-16 23-36 22-54z m75 20c0 21-9 44-27 61-16 17-38 27-60 27l16 58c1 4 3 8 6 11 32 23 82 16 116-18 36-36 42-89 14-121-2-1-4-2-6-3z m317 270l-27-28c0 4 1 8 0 11-3 31-17 61-40 85-27 26-61 41-95 41l26 26c13 14 32 21 52 21 26 0 52-12 73-32 19-19 30-43 32-67 1-22-6-42-21-57z"/>
<glyph glyph-name="chevron-right" unicode="&#94;" d="M208 416l-64-64 96-96-96-96 64-64 160 160z"/>
<glyph glyph-name="chevron-left" unicode="&#95;" d="M368 352l-64 64-160-160 160-160 64 64-96 96z"/>
<glyph glyph-name="comment-1" unicode="&#96;" d="M416 448l-320 0c-31 0-64-32-64-64l0-192c0-64 64-64 64-64l32 0 0-128 128 128c0 0 129 0 160 0 31 0 64 34 64 64l0 192c0 31-32 64-64 64z"/>
<glyph glyph-name="comment-discussion" unicode="&#123;" d="M160 256c0 32 0 96 0 96 0 0-80 0-96 0-16 0-32-16-32-32 0-16 0-144 0-160 0-16 16-32 32-32 16 0 32 0 32 0l0-96 97 96c0 0 81 0 96 0 15 0 31 16 31 32 0 16 0 32 0 32 0 0-64 0-96 0-32 0-64 32-64 64z m288 192c-16 0-208 0-224 0-16 0-32-16-32-32 0-16 0-144 0-160 0-16 16-32 32-32 16 0 95 0 95 0l97-96 0 96c0 0 16 0 32 0 16 0 32 16 32 32 0 16 0 144 0 160 0 16-16 32-32 32z"/>
<glyph glyph-name="cloud-upload-1" unicode="&#124;" d="M256 320l-96-96 64 0 0-160 64 0 0 160 64 0z m160 32c-4 0-9-1-13-1-24 57-81 97-147 97-66 0-123-40-147-97-4 0-9 1-13 1-53 0-96-43-96-96 0-53 43-96 96-96 10 0 20 2 29 5 17-19 41-31 67-35l0 32c-25 6-46 22-56 44-11-9-25-14-40-14-35 0-64 29-64 64 0 35 29 64 64 64 13 0 24-4 34-10 11 60 63 106 126 106 63 0 115-46 125-106 10 6 22 10 35 10 35 0 64-29 64-64 0-35-29-64-64-64-5 0-10 1-15 2-14-21-38-34-65-34-6 0-11 1-16 2l0-32c5-1 11-2 16-2 31 0 58 12 79 32 0 0 0 0 1 0 53 0 96 43 96 96 0 53-43 96-96 96z"/>
<glyph glyph-name="cloud-download" unicode="&#125;" d="M416 352c-4 0-9-1-13-1-24 57-81 97-147 97-66 0-123-40-147-97-4 0-9 1-13 1-53 0-96-43-96-96 0-53 43-96 96-96 10 0 20 2 29 5 17-19 41-31 67-35l0 32c-25 6-46 22-56 44-11-9-25-14-40-14-35 0-64 29-64 64 0 35 29 64 64 64 13 0 24-4 34-10 11 60 63 106 126 106 63 0 115-46 125-106 10 6 22 10 35 10 35 0 64-29 64-64 0-35-29-64-64-64-5 0-10 1-15 2-14-21-38-34-65-34-6 0-11 1-16 2l0-32c5-1 11-2 16-2 31 0 58 12 78 32 1 0 1 0 2 0 53 0 96 43 96 96 0 53-43 96-96 96z m-128-96l-64 0 0-160-64 0 96-96 96 96-64 0z"/>
<glyph glyph-name="clock-1" unicode="&#126;" d="M224 224l128 0 32 32-32 32-64 0 0 96-32 32-32-32z m32 256c-124 0-224-100-224-224 0-124 100-224 224-224 124 0 224 100 224 224 0 124-100 224-224 224z m0-384c-88 0-160 72-160 160 0 88 72 160 160 160 88 0 160-72 160-160 0-88-72-160-160-160z"/>
<glyph glyph-name="eye" unicode="&#92;" d="M256 448c-96 0-208-64-256-192 48-96 144-160 256-160 112 0 208 64 256 160-48 128-160 192-256 192z m0-320c-96 0-176 64-192 128 16 64 96 128 192 128 96 0 176-64 192-128-16-64-96-128-192-128z m0 224c-10 0-19-2-28-5 17-7 28-24 28-43 0-27-21-48-48-48-19 0-36 11-43 28-3-9-5-18-5-28 0-53 43-96 96-96 53 0 96 43 96 96 0 53-43 96-96 96z"/>
<glyph glyph-name="trashcan" unicode="&#57344;" d="M416 448l-128 0c0 0 0 12 0 16 0 9-7 16-16 16-9 0-16-7-16-16 0-9 0-16 0-16l-128 0c-18 0-32-14-32-32l0-32c0-18 14-32 32-32l0-288c0-18 14-32 32-32l224 0c18 0 32 14 32 32l0 288c18 0 32 14 32 32l0 32c0 18-14 32-32 32z m-32-368c0-9-7-16-16-16l-192 0c-9 0-16 7-16 16l0 272 32 0 0-240c0-9 7-16 16-16 9 0 16 7 16 16l0 240 32 0 0-240c0-9 7-16 16-16 9 0 16 7 16 16l0 240 32 0 0-240c0-9 7-16 16-16 9 0 16 7 16 16l0 240 32 0z m32 312c0-4-4-8-8-8l-272 0c-4 0-8 4-8 8l0 16c0 4 4 8 8 8l272 0c4 0 8-4 8-8z"/>
<glyph glyph-name="triangle-right" unicode="&#57345;" d="M160 448l192-192-192-192z"/>
<glyph glyph-name="triangle-left" unicode="&#57346;" d="M160 256l192-192 0 384z"/>
<glyph glyph-name="unmute" unicode="&#57347;" d="M96 320l-64 0 0-128 64 0 128-96 32 0 0 320-32 0z m205-19c-6 7-16 7-22 0-7-6-7-16 0-22 12-13 12-33 0-46-7-6-7-16 0-22 6-7 16-7 22 0 25 25 25 65 0 90z m46 46c-7 6-17 6-23 0-6-7-6-17 0-23 37-38 37-98 0-136-6-6-6-16 0-23 6-6 16-6 23 0 49 50 49 132 0 182z m45 45c-6 6-17 6-23 0-6-6-6-17 0-23 63-62 63-164 0-226-6-6-6-17 0-23 6-6 17-6 23 0 75 75 75 197 0 272z"/>
<glyph glyph-name="paperclip" unicode="&#57348;" d="M155 59c-14 0-32 5-50 23-24 24-27 47-25 62 2 17 11 34 27 50l150 151c43 42 71 26 83 13 16-15 26-42-14-82l-138-139-27 27 138 139c22 21 17 26 14 28-1 2-7 8-29-13l-150-151c-7-7-15-17-16-28-1-9 4-19 14-30 13-13 23-12 26-11 9 1 19 7 30 18 13 12 167 166 178 178 15 15 24 29 28 42 5 20-1 38-20 57-19 19-51 40-98-8l-165-165c-8-7-20-7-27 0-8 8-8 20 0 27l165 165c51 51 106 54 152 8 36-36 36-71 30-94-6-20-18-39-38-59-11-12-166-166-178-178-17-17-34-26-51-29-3 0-6-1-9-1z"/>
<glyph glyph-name="target-two" unicode="&#57349;" d="M486 269l-38 0c-7 96-83 172-179 179l0 38c0 7-6 13-13 13-7 0-13-6-13-13l0-38c-96-7-172-83-179-179l-38 0c-7 0-13-6-13-13 0-7 6-13 13-13l38 0c7-96 83-172 179-179l0-38c0-7 6-13 13-13 7 0 13 6 13 13l0 38c96 7 172 83 179 179l38 0c7 0 13 6 13 13 0 7-6 13-13 13z m-243-154c-67 7-121 61-128 128l26 0c6-53 49-96 102-102z m0 256c-53-6-96-49-102-102l-26 0c7 67 61 121 128 128l0-26z m26 26c67-7 121-61 128-128l-26 0c-6 53-49 96-102 102z m0-282l0 26c53 6 96 49 102 102l26 0c-7-67-61-121-128-128z"/>
<glyph glyph-name="angle-right" unicode="&#57350;" d="M335 238c0-3-1-5-3-7l-133-133c-2-2-5-3-7-3-2 0-5 1-7 3l-14 14c-2 2-3 4-3 7 0 2 1 5 3 6l112 113-112 112c-2 2-3 4-3 7 0 2 1 4 3 6l14 14c2 2 5 3 7 3 2 0 5-1 7-3l133-133c2-2 3-4 3-6z"/>
<glyph glyph-name="angle-left" unicode="&#57351;" d="M344 357c0-3-1-5-3-7l-112-112 112-113c2-1 3-4 3-6 0-3-1-5-3-7l-14-14c-2-2-5-3-7-3-2 0-5 1-7 3l-133 133c-2 2-3 4-3 7 0 2 1 4 3 6l133 133c2 2 5 3 7 3 2 0 5-1 7-3l14-14c2-2 3-4 3-6z"/>
<glyph glyph-name="angle-up" unicode="&#57352;" d="M399 174c0-3-1-5-3-7l-15-14c-1-2-4-3-6-3-3 0-5 1-7 3l-112 112-112-112c-2-2-4-3-7-3-2 0-5 1-6 3l-15 14c-2 2-3 4-3 7 0 2 1 4 3 6l133 133c2 2 5 3 7 3 2 0 5-1 7-3l133-133c2-2 3-4 3-6z"/>
<glyph glyph-name="angle-down" unicode="&#57353;" d="M399 302c0-3-1-5-3-7l-133-133c-2-2-5-3-7-3-2 0-5 1-7 3l-133 133c-2 2-3 4-3 7 0 2 1 4 3 6l15 15c1 1 4 2 6 2 3 0 5-1 7-2l112-113 112 113c2 1 4 2 7 2 2 0 5-1 6-2l15-15c2-2 3-4 3-6z"/>
<glyph glyph-name="chat-bubble-two" unicode="&#57354;" d="M201 402c-29 0-56-5-82-15-25-9-45-23-60-40-15-17-22-35-22-54 0-16 5-31 15-46 10-14 24-27 42-37l28-16-10-24c6 4 12 7 18 11l12 9 15-3c15-3 30-4 44-4 29 0 57 5 82 15 25 10 45 23 60 40 15 17 23 35 23 55 0 19-8 37-23 54-15 17-35 31-60 40-25 10-53 15-82 15z m0 37c37 0 70-7 101-20 31-13 56-31 73-53 18-22 27-47 27-73 0-27-9-51-27-74-17-22-42-40-73-53-31-13-64-20-101-20-16 0-33 2-50 5-24-17-50-29-80-37-6-1-15-3-24-4l-1 0c-2 0-4 0-6 2-2 2-3 4-3 6 0 1 0 1 0 2 0 1 0 1 0 2 0 0 0 1 0 1l1 2c0 0 0 0 1 1 1 1 1 2 1 2 0 0 1 0 1 1 1 1 2 2 2 2 1 1 3 3 6 7 4 3 6 6 8 8 1 2 3 5 6 8 3 4 5 8 7 11 2 4 4 8 6 13-24 14-42 31-56 51-13 20-20 41-20 64 0 26 9 51 27 73 18 22 42 40 73 53 31 13 65 20 101 20z m235-334c2-5 4-9 6-13 2-4 4-7 7-11 3-3 5-6 6-8 2-2 4-5 8-8 3-4 5-6 6-8 1 0 1 0 2-1 0-1 1-1 1-1 0-1 1-1 1-2 0 0 1-1 1-1l1-2c0 0 0 0 0-1 1-2 1-2 0-2 0 0 0-1 0-2 0-3-2-5-4-6-1-2-4-3-6-2-9 1-18 2-24 4-30 8-56 20-80 37-17-3-34-5-50-5-52 0-97 13-135 38 11-1 19-1 25-1 31 0 60 4 88 13 29 8 54 20 76 36 24 18 42 38 55 61 12 23 19 47 19 73 0 14-2 29-7 43 25-14 44-30 59-51 14-20 21-42 21-66 0-22-7-44-20-64-14-20-32-36-56-50z"/>
<glyph glyph-name="chat-bubble" unicode="&#57355;" d="M256 402c-39 0-75-6-109-20-34-13-61-31-81-53-19-23-29-47-29-73 0-21 6-42 20-61 14-19 33-36 58-50l24-14-7-28c-5-17-12-34-20-49 29 12 55 28 78 49l13 11 16-2c13-2 25-2 37-2 39 0 75 6 109 20 34 13 61 31 81 53 19 23 29 47 29 73 0 26-10 50-29 73-20 22-47 40-81 53-34 14-70 20-109 20z m256-146c0-33-11-64-34-92-23-28-54-50-93-66-40-17-83-25-129-25-13 0-27 1-41 2-38-33-82-56-132-69-9-2-20-4-32-6l-2 0c-3 0-5 1-8 3-2 2-3 5-4 8l0 0c-1 1-1 2 0 4 0 1 0 2 0 2 0 1 1 2 2 3l1 3c0 0 1 1 2 2 2 2 2 3 3 3 1 1 4 5 8 10 5 5 8 8 10 10 2 3 5 6 9 12 4 5 7 10 9 14 3 5 5 10 8 17 3 7 5 14 8 22-30 17-54 38-71 63-17 25-26 51-26 80 0 33 11 64 34 92 23 28 54 50 93 66 40 17 83 25 129 25 46 0 89-8 129-25 39-16 70-38 93-66 23-28 34-59 34-92z"/>
<glyph glyph-name="chevron-right-1" unicode="&#57356;" d="M405 274c0-10-3-18-10-26l-186-186c-7-7-16-10-26-10-10 0-19 3-26 10l-22 22c-7 7-10 16-10 26 0 10 3 18 10 25l139 139-139 139c-7 7-10 16-10 26 0 10 3 19 10 26l22 21c7 7 16 11 26 11 10 0 19-4 26-11l186-186c7-7 10-16 10-26z"/>
<glyph glyph-name="chevron-left-1" unicode="&#57357;" d="M303 63l-186 186c-7 7-10 15-10 25 0 11 3 19 10 26l186 186c7 7 16 11 26 11 10 0 19-4 26-11l22-21c7-7 10-16 10-26 0-10-3-19-10-26l-139-139 139-138c7-8 10-16 10-26 0-10-3-19-10-26l-22-21c-7-7-16-11-26-11-10 0-19 4-26 11z"/>
<glyph glyph-name="chevron-up" unicode="&#57358;" d="M479 165c0-11-4-19-11-26l-21-22c-8-7-16-10-26-10-11 0-19 3-26 10l-139 139-139-139c-7-7-15-10-26-10-10 0-18 3-25 10l-22 22c-7 7-11 15-11 26 0 10 4 18 11 26l186 186c7 7 16 10 26 10 10 0 19-3 26-10l186-186c7-8 11-16 11-26z"/>
<glyph glyph-name="chevron-down" unicode="&#57359;" d="M479 311c0-10-4-19-11-26l-186-186c-7-7-16-11-26-11-10 0-19 4-26 11l-186 186c-7 7-11 16-11 26 0 10 4 19 11 26l21 21c8 7 17 11 26 11 11 0 19-4 26-11l139-139 139 139c7 7 15 11 26 11 9 0 18-4 26-11l21-21c7-8 11-16 11-26z"/>
<glyph glyph-name="dollar" unicode="&#57360;" d="M389 173c0-29-9-54-28-75-19-21-44-34-74-39l0-50c0-3-1-5-3-6-1-2-4-3-6-3l-39 0c-2 0-4 1-6 3-2 2-3 4-3 6l0 50c-13 2-25 5-36 9-12 4-22 8-29 13-8 4-15 9-22 13-6 5-10 9-13 11-2 2-4 4-5 5-3 4-3 8 0 12l29 39c1 1 4 3 7 3 2 0 5 0 6-3l1 0c22-19 45-31 69-36 7-1 15-2 22-2 15 0 29 4 40 12 12 8 18 20 18 35 0 5-2 10-4 15-3 5-6 9-10 12-4 3-9 7-17 11-7 4-14 7-19 9-5 2-12 5-22 9-8 3-14 6-18 7-4 2-10 5-18 8-7 3-13 6-17 9-5 2-10 6-17 10-6 4-11 8-15 12-4 4-8 9-12 14-5 6-8 11-10 17-3 5-5 12-6 19-2 7-3 14-3 22 0 26 9 49 28 69 19 20 43 33 73 38l0 52c0 2 1 4 3 6 2 2 4 3 6 3l39 0c2 0 5-1 6-3 2-1 3-3 3-6l0-50c11-2 21-4 31-7 11-3 19-6 25-10 7-3 13-6 18-10 6-4 10-7 12-9 1-1 3-2 4-4 3-3 4-7 1-10l-23-42c-1-3-4-5-6-5-3 0-6 0-8 2-1 1-2 2-4 4-2 1-6 4-11 7-6 4-11 7-17 9-6 3-13 6-21 8-9 2-17 3-25 3-18 0-33-4-44-12-12-8-17-19-17-32 0-5 1-9 2-14 2-4 5-8 9-11 4-4 7-7 11-10 3-2 9-5 16-9 7-3 13-6 17-7 5-2 11-5 20-8 10-4 18-7 23-9 6-2 13-6 22-10 9-5 16-9 22-12 5-4 11-9 17-15 7-6 12-12 15-18 4-6 7-13 9-22 3-8 4-17 4-27z"/>
<glyph glyph-name="heart-1" unicode="&#57361;" d="M256 37c-5 0-9 1-13 5l-178 172c-2 1-4 4-8 7-3 4-8 10-16 19-7 9-13 18-19 28-6 9-11 21-15 34-5 14-7 27-7 40 0 42 12 74 36 98 24 24 58 35 101 35 11 0 23-2 36-6 12-4 23-9 34-16 11-7 20-14 27-20 8-6 15-12 22-19 7 7 14 13 22 19 7 6 16 13 27 20 11 7 22 12 34 16 13 4 25 6 36 6 43 0 77-11 101-35 24-24 36-56 36-98 0-42-22-85-65-129l-178-171c-4-4-8-5-13-5z"/>
<glyph glyph-name="heart-empty" unicode="&#57362;" d="M475 342c0 15-2 29-6 41-4 11-9 21-15 28-7 7-15 12-24 17-9 4-18 7-27 9-8 1-18 2-28 2-9 0-20-3-32-7-11-5-22-11-31-19-10-7-18-14-25-20-7-7-12-13-17-18-3-4-8-6-14-6-6 0-11 2-14 6-5 5-10 11-17 18-7 6-15 13-25 20-9 8-20 14-31 19-12 4-23 7-32 7-10 0-20-1-28-2-9-2-18-5-27-9-9-5-17-10-24-17-6-7-11-17-15-28-4-12-6-26-6-41 0-32 17-66 53-102l166-160 166 160c36 36 53 70 53 102z m37 0c0-42-22-85-65-129l-178-171c-4-4-8-5-13-5-5 0-9 1-13 5l-178 172c-2 1-4 4-8 7-3 4-8 10-16 19-7 9-13 18-19 28-6 9-11 21-15 34-5 14-7 27-7 40 0 42 12 74 36 98 24 24 58 35 101 35 11 0 23-2 36-6 12-4 23-9 34-16 11-7 20-14 27-20 8-6 15-12 22-19 7 7 14 13 22 19 7 6 16 13 27 20 11 7 22 12 34 16 13 4 25 6 36 6 43 0 77-11 101-35 24-24 36-56 36-98z"/>
<glyph glyph-name="gittip" unicode="&#57363;" d="M257 140l100 135c3 4 6 10 7 17 2 7 1 15-1 24-3 9-9 17-18 23-7 5-15 7-24 7-8 0-15-2-21-5-5-3-11-7-15-13-7-7-16-11-28-11-11 0-20 4-27 11-4 6-9 10-15 13-6 3-13 5-21 5-8 0-16-2-24-7-9-6-15-14-18-23-2-9-3-17-1-24 1-7 4-13 7-17z m218 116c0-40-9-77-29-110-20-34-46-60-80-80-33-20-70-29-110-29-40 0-77 9-110 29-34 20-60 46-80 80-20 33-29 70-29 110 0 40 9 77 29 110 20 34 46 60 80 80 33 20 70 29 110 29 40 0 77-9 110-29 34-20 60-46 80-80 20-33 29-70 29-110z"/>
<glyph glyph-name="basket" unicode="&#57364;" d="M102 77c0 13 6 25 16 36 10 10 22 15 36 15 14 0 26-5 36-15 10-11 15-23 15-36 0-15-5-27-15-37-10-9-22-14-36-14-14 0-26 5-36 14-10 10-16 22-16 37m256 0c0 13 6 25 16 36 10 10 22 15 36 15 14 0 26-5 36-15 10-11 15-23 15-36 0-15-5-27-15-37-10-9-22-14-36-14-14 0-26 5-36 14-10 10-16 22-16 37m-164 121c-13-4-19-8-18-12 1-5 8-7 23-7 0 0 287 0 287 0 0 0 0-39 0-39 0-7-3-10-10-10 0 0-66 0-66 0 0 0-256 0-256 0 0 0-13 0-13 0-7 0-10 3-10 10 0 0 0 39 0 39 0 0-5 24-5 24 0 0-50 232-50 232 0 0-50 0-50 0 0 0 0 41 0 41 0 7 3 10 10 10 0 0 80 0 80 0 7 0 10-3 10-10 0 0 0-44 0-44 0 0 360 0 360 0 0 0 0-140 0-140 0-8-3-12-9-13 0 0-283-81-283-81"/>
<glyph glyph-name="camera-2" unicode="&#57365;" d="M256 307c22 0 40-7 55-22 14-15 22-33 22-55 0-21-8-39-23-54-15-15-33-22-54-22-21 0-39 7-54 22-15 15-23 33-23 54 0 22 8 40 23 55 15 15 33 22 54 22m205 77c14 0 26-5 36-15 10-10 15-22 15-36 0 0 0-231 0-231 0-13-5-25-15-35-10-11-22-16-36-16 0 0-410 0-410 0-13 0-25 5-36 16-10 10-15 22-15 35 0 0 0 231 0 231 0 14 5 26 15 36 11 10 23 15 36 15 0 0 62 0 62 0 9 0 16 5 20 15 0 0 15 47 15 47 4 10 11 15 21 15 0 0 174 0 174 0 10 0 17-5 21-15 0 0 15-47 15-47 4-10 11-15 20-15 0 0 62 0 62 0m-205-282c36 0 66 13 91 38 25 25 37 55 37 90 0 36-12 66-37 91-25 25-55 37-91 37-35 0-66-12-91-37-25-25-37-55-37-91 0-35 12-65 37-90 25-25 56-38 91-38m187 195c5 0 9 2 13 6 3 3 5 8 5 12 0 5-2 9-5 13-4 3-8 5-13 5-12 0-18-6-18-18 0-5 2-10 6-13 3-3 8-5 12-5"/>
<glyph glyph-name="rss-1" unicode="&#57366;" d="M130 130c11-11 18-26 18-43 0-17-7-32-18-43l0 0c-11-11-26-18-43-18-17 0-32 7-43 18-12 11-18 26-18 43 0 17 6 32 18 43l0 0c11 11 26 18 43 18 17 0 32-7 43-18z m0 0l0 0c0 0 0 0 0 0z m-86-86c0 0 0 0 0 0 0 0 0 0 0 0z m-18 286l0-88c57 0 111-23 152-64 41-40 63-95 63-152l0 0 0 0 89 0c0 83-34 159-90 214-55 56-131 90-214 90z m0 156l0-88c205 0 372-167 372-372l88 0c0 127-51 242-135 325-83 84-198 135-325 135z"/>
<glyph glyph-name="youtube-alt" unicode="&#57367;" d="M486 346c0 38-30 69-68 69l-324 0c-38 0-68-31-68-69l0-185c0-38 30-69 68-69l324 0c38 0 68 31 68 69z m-276-171l0 174 132-87z"/>
<glyph glyph-name="twitter" unicode="&#57368;" d="M370 141l-114 0c-16 0-29 5-40 16-11 12-17 25-17 41l0 40 162 0c15 0 28 6 38 16 11 11 16 23 16 38 0 14-5 27-16 37-10 11-23 16-38 16l-162 0 0 84c0 16-5 29-16 40-12 12-25 17-41 17-16 0-30-5-41-16-11-11-17-25-17-41l0-231c0-48 17-88 51-122 33-34 74-50 121-50l114 0c16 0 29 5 41 17 11 11 17 24 17 40 0 16-6 30-17 41-12 11-25 17-41 17z"/>
<glyph glyph-name="tumblr" unicode="&#57369;" d="M296 110c-7 4-14 12-17 20-3 7-3 23-3 49l0 119 108 0 0 82-108 0 0 106-66 0c-3-23-8-43-16-58-8-16-18-29-31-40-13-11-35-19-53-25l0-65 63 0 0-162c0-21 2-37 7-48 4-11 12-22 24-32 11-9 25-17 42-22 16-6 29-8 50-8 18 0 36 1 52 5 16 4 34 10 54 20l0 72c-23-15-47-22-70-22-14 0-25 3-36 9z"/>
<glyph glyph-name="sharethis" unicode="&#57370;" d="M188 256c0-2 0-3 0-5l165-82c14 12 32 19 52 19 45 0 81-36 81-81 0-45-36-81-81-81-45 0-81 36-81 81 0 2 0 3 0 5l-165 82c-14-12-32-19-52-19-45 0-81 36-81 81 0 45 36 81 81 81 20 0 38-7 52-19l165 82c0 2 0 4 0 5 0 45 36 81 81 81 45 0 81-36 81-81 0-45-36-81-81-81-20 0-38 7-52 19l-165-82c0-2 0-3 0-5z"/>
<glyph glyph-name="vcard" unicode="&#57371;" d="M469 118c0 20-14 20-30 27l-77 31c-1 0-2 1-4 1l0 0c-13 6-25 15-30 21l0 0 0 0c0 1-1 1-1 2l0 0 0 0 0 0 0 0c-2 3-4 5-6 4l0 0 0 0 0 0 0 0 0 0-1 0c-2-1-1 0-2 2-2 6-6 16-6 18-1 3-3-5-3 4l1 14c2 2 3 3 4 4 5 6 5 21 8 24 2 4 7 5 12 22 5 17 11 42 5 42-2 0-4-1-5-2 1 6 3 20 4 31 0 14-2 49-10 62-5 9-15 17-25 23-6 4-12 7-17 9-14 6-60 3-75 0-18-4-30-15-38-28-8-13-11-52-11-66 1-6 4-17 5-23 1-4 1-4 2-6-1 0-1 0-2 0-6 0 0-25 5-42 5-17 10-18 12-22 3-3 3-18 8-24 1-1 2-2 4-4l1-12 1-7c-1 2-2 4-3 1-2-7-4-13-6-20 0 1-1 1-1 1-2 2-5 0-8-4-3-6-16-16-31-22l0-1 0-1 0 0c-1-1-2-1-4-1l-76-31c-17-7-31-7-31-27l-12-67 460 0z"/>
<glyph glyph-name="book" unicode="&#57372;" d="M426 381c6-3 9-8 9-14 0 0 0-288 0-288 0-5-2-9-6-13-4-4-9-6-14-6-16 0-24 7-24 19 0 0 0 267 0 267 0 4-2 7-6 9 0 0-207 111-207 111-11 3-22 2-35-5-15-7-24-15-28-23 0 0 209-116 209-116 6-3 9-8 9-15 0 0 0-281 0-281 0-8-3-13-9-15-2-1-5-2-9-2-4 0-8 1-10 2-3 2-37 24-103 65-66 42-103 64-109 67-9 7-13 12-13 18 0 0-3 268-3 268 0 10 2 18 7 27 10 15 27 29 52 39 25 11 45 12 60 5 0 0 230-119 230-119"/>
<glyph glyph-name="book-close" unicode="&#57373;" d="M190 492l-92-68-13 3 0-363 278-64 0 363-209 49 45 35 206-42 0-170 22 0 0 209z"/>
<glyph glyph-name="book-open" unicode="&#57374;" d="M212 312c-36 28-80 58-149 63z m0-64c-36 28-80 58-149 63z m-64-23c-24 11-51 20-85 22z m130 87l150 63c-69-5-113-35-150-63z m0-64l150 63c-69-5-113-35-150-63z m150-1c-34-2-62-11-85-22z m42 257c-93 0-178-43-222-78l-6 0c-43 35-128 78-222 78l-20 0 0-405 20 0c69 0 146-27 180-52 10-8 19-16 27-24l17-16 2 0 17 16c9 8 18 16 28 24 34 25 110 52 179 52l21 0 0 405z m-235-430c0 2-6 5-8 7-36 27-120 55-184 60l0 320c85-7 155-48 185-78l6-7 1 0z m213 67c-64-5-148-33-184-60-3-2-8-5-8-7l0 302 1 0 6 7c30 30 100 71 185 78z"/>
<glyph glyph-name="bookmark" unicode="&#57375;" d="M64 512l0-495 175 102 188-109 0 502z m43-420l0 377 128 0 0-306-14-7z m277-8l-119 72-9 6 0 307 128 0z"/>
<glyph glyph-name="flag-1" unicode="&#57376;" d="M405 469l0-8c-21 6-37 9-57 9-38 0-76-12-112-23-35-11-67-21-99-21-24 0-43 6-63 19l-31 21 0-328 7-7c27-17 55-25 88-25 38 0 74 11 110 23 34 11 69 21 100 21 20 0 36-4 57-13l0-138 43 0 0 470z m0-285c-21 6-37 9-57 9-38 0-76-12-112-23-35-11-65-22-97-22-20 0-32 5-54 14l0 230c22-6 34-9 54-9 38 0 74 12 110 23 34 11 68 22 99 22 20 0 36-5 57-14z"/>
<glyph glyph-name="bookmarks" unicode="&#57377;" d="M371 512c7 0 13-3 18-8 5-5 8-11 8-18 0 0 0-435 0-435 0 0-77 92-77 92 0 0 0 318 0 318 0 7-3 13-8 18-5 5-11 7-18 7 0 0-51 0-51 0 0 17 7 26 21 26 0 0 107 0 107 0m-128-77c7 0 13-2 18-7 5-6 8-12 8-18 0 0 0-410 0-410 0 0-77 92-77 92 0 0-77-92-77-92 0 0 0 410 0 410 0 17 7 25 21 25 0 0 107 0 107 0"/>
<glyph glyph-name="bookmark-1" unicode="&#57378;" d="M323 486c7 0 13-2 18-7 5-5 7-11 7-18 0 0 0-435 0-435 0 0-92 92-92 92 0 0-92-92-92-92 0 0 0 435 0 435 0 17 7 25 20 25 0 0 139 0 139 0"/>
<glyph glyph-name="book-open-1" unicode="&#57379;" d="M200 199c0 0 0-35 0-35 0 0-103 41-103 41 0 0 0 35 0 35 0 0 103-41 103-41m0 106c0 0 0-35 0-35 0 0-103 41-103 41 0 0 0 35 0 35 0 0 103-41 103-41m275 177c8-4 11-11 11-21 0 0 0-328 0-328 0-11-5-19-16-23 0 0-204-82-204-82-2-1-4-1-5-1-1 0-1-1-2-1-1 0-2 0-3 0-1 0-2 0-3 0-1 0-1 1-2 1 0 0-5 1-5 1 0 0-204 82-204 82-11 4-16 12-16 23 0 0 0 328 0 328 0 10 3 17 11 21 7 6 15 7 23 3 0 0 196-78 196-78 0 0 196 78 196 78 8 4 16 3 23-3m-245-403c0 0 0 287 0 287 0 0-163 65-163 65 0 0 0-287 0-287 0 0 163-65 163-65m215 65c0 0 0 287 0 287 0 0-163-65-163-65 0 0 0-287 0-287 0 0 163 65 163 65m-30 96c0 0 0-35 0-35 0 0-103-41-103-41 0 0 0 35 0 35 0 0 103 41 103 41m0 106c0 0 0-35 0-35 0 0-103-41-103-41 0 0 0 35 0 35 0 0 103 41 103 41"/>
<glyph glyph-name="bookmark-2" unicode="&#57380;" d="M406 475c4 0 8 0 12-2 7-3 12-7 15-12 4-5 6-11 6-18l0-368c0-6-2-12-6-18-3-5-8-9-15-11-3-2-8-3-12-3-9 0-17 3-24 10l-126 121-126-121c-7-7-15-10-24-10-4 0-8 1-12 3-7 2-12 6-15 11-4 6-6 12-6 18l0 368c0 7 2 13 6 18 3 5 8 9 15 12 4 2 8 2 12 2z"/>
<glyph glyph-name="book-1" unicode="&#57381;" d="M487 375c7-10 9-23 5-36l-79-259c-3-12-11-23-22-31-11-8-22-12-35-12l-263 0c-15 0-29 5-43 15-13 10-23 23-28 37-5 13-5 25-1 37 0 0 0 3 1 7 1 5 1 8 1 11 0 2 0 4-1 6 0 3-1 5-1 6 1 2 2 4 3 6 1 2 2 4 4 6 2 3 4 5 5 7 5 7 9 16 13 26 4 10 7 19 9 26 0 2 0 5 0 9-1 4-1 6 0 8 0 2 2 5 4 8 3 3 5 5 5 7 4 6 8 15 12 26 4 11 7 19 7 26 1 1 0 4 0 9-1 4-1 7 0 8 1 2 3 5 6 8 4 4 6 6 6 7 4 5 8 13 13 24 4 11 7 20 7 28 1 1 0 4 0 7-1 3-1 6-1 7 0 2 1 4 3 6 1 1 3 4 5 6 2 3 3 5 5 6 1 2 3 5 4 9 2 3 3 7 5 10 1 3 2 6 4 10 2 4 4 7 6 9 2 3 4 5 7 7 3 2 7 3 11 3 3 0 8 0 13-1l0-1c7 2 12 2 14 2l218 0c14 0 25-5 32-16 8-10 10-23 6-37l-79-259c-7-22-13-37-20-43-7-7-19-10-37-10l-248 0c-5 0-9-2-11-5-2-3-2-7 0-12 4-13 18-20 41-20l264 0c5 0 10 2 16 5 5 3 8 6 10 11l85 282c2 5 2 10 2 17 7-3 13-7 17-13z m-304 0c-1-3-1-5 0-7 1-1 3-2 6-2l174 0c2 0 4 1 7 2 2 2 4 4 5 7l6 18c0 3 0 5-1 7-1 1-3 2-6 2l-173 0c-3 0-5-1-8-2-2-2-4-4-4-7z m-24-73c-1-3-1-5 0-7 2-2 3-2 6-2l174 0c2 0 5 0 7 2 3 2 4 4 5 7l6 18c1 2 0 5-1 6-1 2-3 3-5 3l-174 0c-3 0-5-1-7-3-3-1-4-4-5-6z"/>
<glyph glyph-name="tag" unicode="&#57382;" d="M402 439l-292 0 0-355 121 116 25 24 25-24 121-116z m4 36c4 0 8 0 12-2 7-3 12-7 15-12 4-5 6-11 6-18l0-368c0-6-2-12-6-18-3-5-8-9-15-11-3-2-8-3-12-3-9 0-17 3-24 10l-126 121-126-121c-7-7-15-10-24-10-4 0-8 1-12 3-7 2-12 6-15 11-4 6-6 12-6 18l0 368c0 7 2 13 6 18 3 5 8 9 15 12 4 2 8 2 12 2z"/>
<glyph glyph-name="address-book" unicode="&#57383;" d="M416 351c5 0 10 4 10 10l0 30c0 6-5 10-10 10l-24 0 0 9c0 9-7 16-16 16l-274 0c-9 0-16-7-16-16l0-308c0-9 7-16 16-16l274 0c9 0 16 7 16 16l0 9 24 0c5 0 10 5 10 10l0 30c0 6-5 11-10 11l-24 0 0 29 24 0c5 0 10 4 10 10l0 30c0 6-5 11-10 11l-24 0 0 29 24 0c5 0 10 4 10 10l0 30c0 6-5 10-10 10l-24 0 0 30 24 0z m-97-165c0-6-4-11-9-11l-142 0c-5 0-10 5-10 11l0 44c0 4 3 8 6 10l56 26c-13 8-22 24-22 42 0 27 18 48 41 48 23 0 41-21 41-48 0-18-9-34-21-42l55-26c3-2 5-6 5-10l0-44z"/>
<glyph glyph-name="book-2" unicode="&#57384;" d="M420 398l0 0c0 4-4 8-8 8l0 0-17 0 0-309 0 0c0-5-4-9-9-9l0 0-260 0c-4 0-8 3-9 7l0 19 243 0 0 0c0 0 0 0 0 0 5 0 9 4 9 8 0 0 0 0 0 0l0 319c0 4-4 8-9 8 0 0 0 0 0 0l0 0-260 0c-4 0-8-4-8-8 0 0 0 0 0-1l0-368c0-1 0-1 0-1 0 0 0 0 0 0l0 0 0 0c0-5 4-8 8-8l0 0 312 0 0 0 0 0c4 0 8 4 8 8l0 0z m-303-8c0 4 4 8 9 8l209 0c5 0 8-4 8-8l0-64 0 0c0-4-3-8-8-8l-209 0c-5 0-9 4-9 8l0 64c0 0 0 0 0 0z"/>
<glyph glyph-name="book-bookmark" unicode="&#57385;" d="M420 398l0 0c0 4-4 8-8 8l0 0-17 0 0-309 0 0c0-5-4-9-9-9l0 0-260 0c-4 0-8 3-9 7l0 19 243 0 0 0c0 0 0 0 0 0 5 0 9 4 9 8 0 0 0 0 0 0l0 319c0 4-4 8-9 8 0 0 0 0 0 0l0 0-29 0 0-179c0-2-2-4-4-4-1 0-3 1-3 2l-29 29 0 0c-1 0-2 1-3 1-1 0-2-1-3-1l0 0-29-30 0 0c-1 0-2-1-3-1-2 0-4 2-4 4l0 179-153 0c-4 0-8-4-8-8 0 0 0 0 0-1l0-368c0-1 0-1 0-1 0 0 0 0 0 0l0 0 0 0c0-5 4-8 8-8l0 0 312 0 0 0 0 0c4 0 8 4 8 8l0 0z"/>
<glyph glyph-name="bookmark-3" unicode="&#57386;" d="M350 445l-188 0c-8 0-15-7-15-16l0-351c0-6 5-11 11-11 3 0 6 1 8 3l0 0 82 83 1 0c1 2 4 3 7 3 3 0 6-1 8-3l0 0 81-82c2-2 5-4 9-4 6 0 11 5 11 11l0 351c0 9-7 16-15 16z"/>
<glyph glyph-name="comment-2" unicode="&#57387;" d="M36 477l0-313 91 0 0-90 141 90 208 0 0 313z"/>
<glyph glyph-name="compass-two" unicode="&#57388;" d="M101 101c85-86 225-86 310 0 86 85 86 225 0 310-85 86-225 86-310 0-86-85-86-225 0-310z m34 24l-10 10 95 157 157 95 10-10-95-157z"/>
<glyph glyph-name="compass" unicode="&#57389;" d="M101 101c85-86 225-86 310 0 86 85 86 225 0 310-85 86-225 86-310 0-86-85-86-225 0-310z m21 21c-74 74-74 194 0 268 74 74 194 74 268 0 74-74 74-194 0-268-74-74-194-74-268 0z m22 12l145 89 89 145-10 10-145-89-89-145z"/>
<glyph glyph-name="contact-book" unicode="&#57390;" d="M37 475l0-438 438 0 0 77-47 0 0 43 47 0 0 78-47 0 0 42 47 0 0 78-47 0 0 43 47 0 0 77-438 0z m195-76c35 0 64-29 64-64 0-24-15-46-36-56l82-49 1 0 0-69-221 0 0 69 1 0 81 49c-21 10-35 32-35 56 0 35 28 64 63 64z"/>
<glyph glyph-name="child" unicode="&#57391;" d="M258 512c-58 0-105-47-105-105 0-58 47-105 105-105 58 0 105 47 105 105 0 58-47 105-105 105z m-60-123l119 0c0-33-26-59-59-59-33 0-60 26-60 59z m-22-104c-55-1-90-36-88-100l-1-185 63 0 0 166c1 14 22 19 25 0l0-166 164 0 0 166c1 14 22 19 25 0l0-166 61 0 0 185c-1 50-22 101-88 100z"/>
<glyph glyph-name="eye-open" unicode="&#57392;" d="M322 242c0-35-30-64-66-64-37 0-66 29-66 64 0 34 29 63 66 63 36 0 66-29 66-63z m-66 131c-38 0-77-9-114-27-27-13-54-33-77-56-12-12-26-30-29-49 1-16 18-36 29-48 21-22 48-41 77-56 35-17 73-27 114-27 38 0 77 9 114 27 27 13 54 33 77 56 12 12 26 30 29 48-1 17-18 37-29 49-21 22-48 41-77 56-35 17-73 27-114 27z m0-33c57 0 103-44 103-99 0-54-46-98-103-98-57 0-104 44-104 98 0 55 47 99 104 99z"/>
<glyph glyph-name="folder-circled" unicode="&#57393;" d="M256 476c-121 0-220-99-220-220 0-121 99-220 220-220 121 0 220 99 220 220 0 121-99 220-220 220z m-77-115l57 0 18-23 133 0 0-187-262 0 0 187 36 0z"/>
<glyph glyph-name="folder" unicode="&#57394;" d="M128 427l-31-40-61 0 0-223 46 170 318 0 0 53-147 0-31 40z m-92-329l0-24 364 0 76 246-376 0z"/>
<glyph glyph-name="folder-1" unicode="&#57395;" d="M128 426l-31-39-61 0 0-314 440 0 0 314-223 0-31 39z"/>
<glyph glyph-name="gear-cog" unicode="&#57396;" d="M222 476l-7-67c-14-3-27-9-39-16l-51 43-49-49 43-52c-7-11-13-24-16-38l-67-7 0-68 67-7c3-14 9-27 16-39l-43-51 49-49 52 43c11-7 24-13 38-16l7-67 68 0 7 67c14 3 27 9 39 16l51-43 49 49-43 51c7 12 13 25 16 39l67 7 0 68-67 7c-3 14-9 27-16 39l43 51-49 49-51-43c-12 7-25 13-39 16l-7 67z m34-156c35 0 64-29 64-64 0-35-29-64-64-64-35 0-64 29-64 64 0 35 29 64 64 64z"/>
<glyph glyph-name="gear-cog-circled" unicode="&#57397;" d="M256 476c-121 0-220-99-220-220 0-121 99-220 220-220 121 0 220 99 220 220 0 121-99 220-220 220z m-21-86l42 0 4-41c8-2 16-5 23-9l32 25 29-29-25-32c4-7 7-15 9-23l41-4 0-42-41-4c-2-8-5-16-9-23l25-32-29-29-32 25c-7-4-15-7-23-9l-4-41-42 0-4 41c-8 2-16 5-23 9l-32-25-29 29 25 32c-4 7-7 15-9 23l-41 4 0 42 41 4c2 8 5 16 9 23l-25 32 29 29 32-25c7 4 15 7 23 9z m21-95c-21 0-39-18-39-39 0-21 18-39 39-39 21 0 39 18 39 39 0 21-18 39-39 39z"/>
<glyph glyph-name="fullscreen" unicode="&#57398;" d="M36 476l0-152 53 53 121-121-121-122-53 52 0-150 152 0-53 53 121 121 122-121-52-53 150 0 0 152-53-53-121 121 121 122 53-52 0 150-152 0 53-53-121-121-122 121 52 53z"/>
<glyph glyph-name="elusive-icons" unicode="&#57399;" d="M36 448l0-412 59 0 0 201c163 45 269-137 381-24l0 235c-174-113-266 100-440 0z"/>
<glyph glyph-name="file-edit" unicode="&#57400;" d="M156 476l-83-80 0-360 311 0 0 140-38-38 0-64-235 0 0 295 73 0 0 69 162 0 0-100-115-115-34-105 105 34 168 167-71 71-15-14 0 100z m93-271l35-35-52-17z"/>
<glyph glyph-name="chat" unicode="&#57401;" d="M36 468l0-267 78 0 0-77 120 77 177 0 0 267z m393-58l0-34 13 0 0-190-65 0 0-51-75 48-4 3-57 0-52-34 99 0 97-62 26-17 0 79 65 0 0 258z"/>
<glyph glyph-name="check" unicode="&#57402;" d="M256 476c-121 0-220-99-220-220 0-121 99-220 220-220 121 0 220 99 220 220 0 121-99 220-220 220z m94-103l46-46-143-142-45-46-46 46-46 46 45 45 47-46 142 143z"/>
<glyph glyph-name="check-circled" unicode="&#57403;" d="M256 476c-121 0-220-99-220-220 0-121 99-220 220-220 121 0 220 99 220 220 0 121-99 220-220 220z m0-48c95 0 172-77 172-172 0-95-77-172-172-172-95 0-172 77-172 172 0 95 77 172 172 172z m84-68l-127-127-41 41-41-40 82-82 41 40 127 128z"/>
<glyph glyph-name="check-empty" unicode="&#57404;" d="M36 476l0-440 440 0 0 440z m72-72l296 0 0-296-296 0z"/>
<glyph glyph-name="check-mark" unicode="&#57405;" d="M36 476l0-440 440 0-156 284 84-72 0-140-296 0 0 296 140 0 72 72z m377-6l-159-159-56 57-59-58 115-115 59 58 159 159-59 58z"/>
<glyph glyph-name="check-mark-two" unicode="&#57406;" d="M404 439l-224-223-72 72-72-71 145-144 71 71 224 224z"/>
<glyph glyph-name="chevron-down-1" unicode="&#57407;" d="M256 137l55 55 128 128-54 55-129-129-129 129-54-55 128-128 55-55z"/>
<glyph glyph-name="chevron-left-2" unicode="&#57408;" d="M137 256l183-183 55 55-129 128 129 128-55 55-128-129-55-54z"/>
<glyph glyph-name="chevron-right-2" unicode="&#57409;" d="M375 256l-55 54-128 129-55-55 129-128-129-128 55-55 128 129 55 54z"/>
<glyph glyph-name="chevron-up-1" unicode="&#57410;" d="M256 375l-55-55-128-128 54-55 129 129 129-129 54 55-128 128z"/>
<glyph glyph-name="circle-arrow-left" unicode="&#57411;" d="M256 36c121 0 220 99 220 220 0 121-99 220-220 220-121 0-220-99-220-220 0-121 99-220 220-220z m24 109l-166 111 166 111 0-60 118 0 0-102-118 0z"/>
<glyph glyph-name="circle-arrow-right" unicode="&#57412;" d="M256 476c-121 0-220-99-220-220 0-121 99-220 220-220 121 0 220 99 220 220 0 121-99 220-220 220z m-24-109l166-111-166-111 0 60-118 0 0 102 118 0z"/>
<glyph glyph-name="circle-arrow-up" unicode="&#57413;" d="M476 256c0-121-99-220-220-220-121 0-220 99-220 220 0 121 99 220 220 220 121 0 220-99 220-220z m-109-24l-111 166-111-166 60 0 0-118 102 0 0 118z"/>
<glyph glyph-name="clock-time" unicode="&#57414;" d="M256 475c-56 0-112-21-155-64-86-86-86-224 0-310 86-86 224-86 310 0 86 86 86 224 0 310-43 43-99 64-155 64z m0-57c41 0 83-16 115-47 63-64 63-166 0-230-64-63-166-63-230 0-63 64-63 166 0 230 32 31 74 47 115 47z m-22-37l0-102-57 0 0-56 113 0 0 158z"/>
<glyph glyph-name="cloud" unicode="&#57415;" d="M397 205c68 7 107-84 54-131l-396 0c-51 87 11 202 103 180 74 120 211 55 239-49z"/>
<glyph glyph-name="cloud-circled" unicode="&#57416;" d="M256 476c-121 0-220-99-220-220 0-121 99-220 220-220 121 0 220 99 220 220 0 121-99 220-220 220z m2-115c41 1 82-32 94-77 47 5 73-58 37-89l-270 0c-35 59 8 137 70 122 19 31 44 44 69 44z"/>
<glyph glyph-name="credit-card" unicode="&#57417;" d="M36 365l0-292 440 0 0 292z m28-27l384 0 0-44-384 0z m0-107l384 0 0-130-384 0z m35-83c-3 0-5-1-6-3-2-2-2-6-2-10 0-4 0-7 2-10 1-2 3-3 6-3 3 0 5 1 7 3 1 3 2 6 2 10 0 4-1 8-2 10-2 2-4 3-7 3z m22 0c-3 0-5-1-6-3-2-2-3-6-3-10 0-4 1-7 3-10 1-2 3-3 6-3 3 0 5 1 7 3 1 3 2 6 2 10 0 4-1 8-2 10-2 2-4 3-7 3z m22 0c-3 0-5-1-7-3-1-2-2-6-2-10 0-4 1-7 2-10 2-2 4-3 7-3 3 0 5 1 6 3 2 3 3 6 3 10 0 4-1 8-3 10-1 2-3 3-6 3z m22 0c-3 0-5-1-7-3-1-2-2-6-2-10 0-4 1-7 2-10 2-2 4-3 7-3 3 0 5 1 6 3 2 3 2 6 2 10 0 4 0 8-2 10-1 2-3 3-6 3z m34 0c-3 0-5-1-6-3-2-2-3-6-3-10 0-4 1-7 3-10 1-2 3-3 6-3 3 0 5 1 6 3 2 3 3 6 3 10 0 4-1 8-3 10-1 2-3 3-6 3z m22 0c-3 0-5-1-7-3-1-2-2-6-2-10 0-4 1-7 2-10 2-2 4-3 7-3 3 0 5 1 6 3 2 3 3 6 3 10 0 4-1 8-3 10-1 2-3 3-6 3z m22 0c-3 0-5-1-7-3-1-2-2-6-2-10 0-4 1-7 2-10 2-2 4-3 7-3 3 0 5 1 6 3 2 3 2 6 2 10 0 4 0 8-2 10-1 2-3 3-6 3z m22 0c-3 0-5-1-7-3-1-2-2-6-2-10 0-4 1-7 2-10 2-2 4-3 7-3 2 0 5 1 6 3 2 3 2 6 2 10 0 4 0 8-2 10-1 2-4 3-6 3z m-166-3c2 0 3 0 4-2 1-2 1-4 1-8 0-3 0-6-1-8-1-1-2-2-4-2-2 0-3 1-4 2-1 2-1 5-1 8 0 4 0 6 1 8 1 2 2 2 4 2z m22 0c2 0 3 0 4-2 1-2 1-4 1-8 0-3 0-6-1-8-1-1-2-2-4-2-2 0-3 1-4 2-1 2-1 5-1 8 0 4 0 6 1 8 1 2 2 2 4 2z m22 0c2 0 3 0 4-2 1-2 1-4 1-8 0-3 0-6-1-8-1-1-2-2-4-2-2 0-3 1-4 2-1 2-1 5-1 8 0 4 0 6 1 8 1 2 2 2 4 2z m22 0c2 0 3 0 4-2 1-2 1-4 1-8 0-3 0-6-1-8-1-1-2-2-4-2-2 0-3 1-4 2-1 2-1 5-1 8 0 4 0 6 1 8 1 2 2 2 4 2z m34 0c2 0 3 0 4-2 1-2 1-4 1-8 0-3 0-6-1-8-1-1-2-2-4-2-2 0-3 1-4 2-1 2-1 5-1 8 0 4 0 6 1 8 1 2 2 2 4 2z m22 0c2 0 3 0 4-2 1-2 1-4 1-8 0-3 0-6-1-8-1-1-2-2-4-2-2 0-3 1-4 2-1 2-1 5-1 8 0 4 0 6 1 8 1 2 2 2 4 2z m22 0c2 0 3 0 4-2 1-2 1-4 1-8 0-3 0-6-1-8-1-1-2-2-4-2-2 0-3 1-4 2-1 2-1 5-1 8 0 4 0 6 1 8 1 2 2 2 4 2z m22 0c1 0 3 0 4-2 0-2 1-4 1-8 0-3-1-6-1-8-1-1-3-2-4-2-2 0-3 1-4 2-1 2-2 5-2 8 0 4 1 6 2 8 1 2 2 2 4 2z m-88-12l0-2 9 0 0 2z"/>
<glyph glyph-name="deviantart" unicode="&#57418;" d="M196 329l50 0 0-182-209 0c2 51 30 122 159 139l1-20c-59-8-80-43-90-86l91 0z m73-80l-1-101 207 0c2 101-88 147-230 144l0-20c63 2 142-1 163-91l-93 0 0 64c-16 5-30 5-46 4z"/>
<glyph glyph-name="disabled-wheelshair" unicode="&#57419;" d="M347 148c11-4 18-13 15-24-1-7-3-13-6-19-12-32-33-58-60-76-30-19-62-29-95-29-45 1-86 18-116 47-31 31-48 72-48 112 0 34 11 65 29 90 20 28 47 48 76 59 12 3 23-1 27-11 4-12-2-22-12-26-24-9-44-24-58-44-14-21-22-44-22-68 1-33 15-63 37-85 25-23 56-35 87-35 27 1 51 8 72 22 21 15 37 35 45 57 2 5 4 10 5 15 3 11 13 17 24 15z m126-77c5-10 2-21-5-27-13-12-33-9-40 7l-66 116c-40 0-81-1-120-1-16 1-29 11-32 26l-27 133 0 0c-2 11 5 24 11 30 7 7 16 11 27 11 8 0 16-3 23-8 15-14 14-26 18-46l79 0c9 0 16-7 18-14 3-16-7-27-21-26l-67 0 10-49 85 0c14 0 25-7 30-18l77-134z m-265 305c-27 1-47 22-47 48 1 26 21 46 47 46 26-1 46-21 46-46-1-27-22-47-46-48z"/>
<glyph glyph-name="dislike" unicode="&#57420;" d="M454 132l-109 0c2-18 5-35 9-52 2-32-19-55-41-70-6-3-12-4-19-3-6 3-11 7-14 14l-49 111-50 0c-14 1-22 10-22 22l0 220c1 13 10 22 22 22l201 0c11-1 22-5 31-10 16-9 27-22 32-38l30-190c2-14-8-26-21-26z m-338-5l-64 0c-8 1-15 8-15 16l0 243c0 9 7 15 15 15l64 0c9 0 16-6 16-15l0-243c-1-9-8-15-16-16z"/>
<glyph glyph-name="download" unicode="&#57421;" d="M256 476c-121 0-220-99-220-220 0-121 99-220 220-220 121 0 220 99 220 220 0 121-99 220-220 220z m0-392c-95 0-172 77-172 172 0 95 77 172 172 172 95 0 172-77 172-172 0-95-77-172-172-172z m43 264l-86 0 0-98-54 0 97-91 97 91-54 0z"/>
<glyph glyph-name="download-two" unicode="&#57422;" d="M36 96l440 0 0-60-440 0z m301 380l-162 0 0-182-101 0 182-170 182 170-101 0z"/>
<glyph glyph-name="edit" unicode="&#57423;" d="M36 476l0-440 440 0 0 284-72-72 0-140-296 0 0 296 140 0 72 72z m385 0l-28-28 55-55 28 28z m-42-42l-161-161 55-55 161 161z m-181-186c-1 0-2 0-2 0l0-52 52 0c0 14-7 28-18 38-8 9-20 14-32 14z"/>
<glyph glyph-name="eject" unicode="&#57424;" d="M256 465l-220-237 440 0z m-220-279l0-113 440 0 0 113z"/>
<glyph glyph-name="elusive-icons-1" unicode="&#57425;" d="M256 476c-121 0-220-99-220-220 0-121 99-220 220-220 121 0 220 99 220 220 0 121-99 220-220 220z m-69-96c66 0 115-66 193-16l0-133c-63-63-123 40-215 14l0-113-33 0 0 232c20 12 38 16 55 16z"/>
<glyph glyph-name="elusive-icons-2" unicode="&#57426;" d="M176 36c-90 51-114 99-100 165 10 48 43 87 46 136 14-26 20-44 21-71 45 55 74 130 76 210 0 0 116-68 123-171 10 21 15 55 5 76 30-21 206-215-23-345 43 84 11 197-64 249 5-22-4-106-37-143 9 62-9 88-9 88 0 0-6-35-29-69-22-32-37-66-9-125z"/>
<glyph glyph-name="envelope" unicode="&#57427;" d="M36 405l0-61 220-126 220 126 0 61z m0-101l0-181 112 117z m440 0l-112-64 112-117z m-297-81l-143-150 440 0-143 150-77-44z"/>
<glyph glyph-name="envelope-circled" unicode="&#57428;" d="M256 476c-121 0-220-99-220-220 0-121 99-220 220-220 121 0 220 99 220 220 0 121-99 220-220 220z m-112-135l224 0 0-32-112-64-112 64z m0-52l57-32-57-61z m224 0l0-93-57 61 57 32z m-151-41l39-23 39 23 73-77-224 0z"/>
<glyph glyph-name="error" unicode="&#57429;" d="M256 476c-121 0-220-99-220-220 0-121 99-220 220-220 121 0 220 99 220 220 0 121-99 220-220 220z m-147-161l294 0 0-118-294 0z"/>
<glyph glyph-name="error-two" unicode="&#57430;" d="M256 476c-121 0-220-99-220-220 0-121 99-220 220-220 121 0 220 99 220 220 0 121-99 220-220 220z m0-60c88 0 160-72 160-160 0-88-72-160-160-160-88 0-160 72-160 160 0 88 72 160 160 160z m-117-117l0-86 234 0 0 86z"/>
<glyph glyph-name="exclamation-sign" unicode="&#57431;" d="M256 476c-121 0-220-99-220-220 0-121 99-220 220-220 121 0 220 99 220 220 0 121-99 220-220 220z m-80-44l160 0-34-241-92 0z m81-258c26 0 47-21 47-47 0-26-21-47-47-47-26 0-47 21-47 47 0 26 21 47 47 47z"/>
<glyph glyph-name="eye-galsses" unicode="&#57432;" d="M446 259l-141 0 18-84 114 0z m-239 0l-141 0 8-84 115 0z m265 24c3-3 4-7 4-11l-13-113c-1-7-7-13-14-13l-137 0c-8 1-13 5-14 12l-22 98c-12 7-28 6-40 1l-22-99c-2-7-7-12-14-12l-138 0c-8 1-13 6-13 13l-13 113c0 4 1 8 4 11l158 82c8 3 15 0 18-7 3-8 1-16-6-20l-100-45 290 0-100 45c-8 4-10 13-7 20 4 7 12 9 19 7z"/>
<glyph glyph-name="facebook-1" unicode="&#57433;" d="M36 476l0-440 440 0 0 440z m316-58c4 0 7 0 10 0 13 0 26-1 39-2l-1-52-35 0c-17 0-23-6-23-25l0-41 59 0-2-55-57 0 0-156-58 0 0 156-41 0 0 55 41 0 0 48c0 35 14 57 43 68 7 3 16 4 25 4z"/>
<glyph glyph-name="folder-close" unicode="&#57434;" d="M128 426l-31-39-61 0 0-53 440 0 0 53-223 0-31 39-94 0z m-92-107l0-246 440 0 0 246z"/>
<glyph glyph-name="gift" unicode="&#57435;" d="M311 340l85 53-83 83-54-119-31 93-82-55 69-55-157 0 0-111 27 0 0-193 342 0 0 193 27 0 0 111z m9 99l43-43-88-56z m-103-21l25-74-61 49z m11-354l-115 0 0 174 115 0z m0 193l-143 0 0 55 143 0z m171-193l-115 0 0 174 115 0z m28 193l-143 0 0 55 143 0z"/>
<glyph glyph-name="globe" unicode="&#57436;" d="M256 476c-121 0-220-99-220-220 0-121 99-220 220-220 121 0 220 99 220 220 0 121-99 220-220 220z m-54-60c8-4 17-8 28-12 11-4 22-6 32-6 8 0 16 2 23 7 7 4 13 7 21 6 9-1 18-4 27-4 11-6 23-14 33-23-5 0-10-1-16-2-6-1-12-2-17-3-6-2-11-4-16-6-4-3-8-6-10-9-3-6-6-11-7-15-3-8-2-20-9-26-1-1-2-2-3-3-1-2-1-3-1-5 0-2 1-5 3-9 1-2 1-4 2-8 6 0 12 1 17 5l31-3c7 9 17 9 24 0 3-2 6-6 8-11l-13-9c-3 1-6 3-11 6-2 1-4 3-6 4-12 6-36-1-50-2-2-3-3-7-7-8-1-2 0-4-1-6-6-10-8-19-6-30 3-16 11-24 25-24l5 0c6 0 11 0 13 0 3-1 4-2 4-2-1-4-2-6-1-9 1-7 6-12 6-19-1-10-4-18-1-27 4-10 9-20 12-29 2-3 4-5 6-5 6-1 13 2 21 11 6 6 10 14 11 22 1 7 6 13 8 21l0 6c1 3 2 6 4 9 1 4 1 9 2 14 4 5 9 9 13 15 2 4 2 7 1 10 0 1-1 1-2 2l-7 3c0 4 7 3 11 2l16 11c0-21-4-42-12-61-7-20-19-37-33-53-20-21-44-37-71-46-28-9-56-11-85-6 5 9 8 19 14 28 0 5 0 9 2 12 5 13 15 17 26 28 11 11 11 25 12 42 0 10-17 17-25 23-18 12-30 30-55 25-10-1-12-3-19 3l-2 1 0 1 1 2c3 3-1 7-5 5-1 0-1 0-2 0-1 4-4 8-5 13 5-4 8-6 12-8 3-2 5-3 7-3 3-1 4-2 6-1 3 0 5 4 6 10 0 6 0 13-1 21 1 1 2 3 2 4 3 17 12 13 25 18 2 1 2 3 1 4 0 1 0 1 0 1 0 0 0 0 0 0 7 4 11 11 15 18-3 6-9 11-16 14-3 5-17 2-20 9-3 0-4 1-6 1-12 8-17 23-31 28-5 1-10 1-16 0 16 13 33 22 52 28z m-113-130c3-5 7-9 11-12 20-20 40-24 66-33 2-1 3-3 6-5 2-2 5-5 8-7 0-1 0-3-1-6 0-3 0-7 0-14 1-17 15-30 19-47-4-21-4-42-6-63-21 9-39 21-55 37-16 16-28 35-37 56-6 15-10 31-12 47-1 16-1 31 1 47z"/>
<glyph glyph-name="globe-two" unicode="&#57437;" d="M256 476c-121 0-220-99-220-220 0-121 99-220 220-220 121 0 220 99 220 220 0 121-99 220-220 220z m-2-57c13 0 24-1 36-3 11-3 22-6 32-11-2 0-3 1-6 1-12 3-22 4-33-4-7-4-14-7-23-7-10 0-20 2-30 5-10 4-19 7-27 12 16 5 33 7 51 7z m-95-33c3 0 6 0 8-1 4-1 7-3 9-6 2-5 4-8 8-12 4-3 8-6 12-9 2-1 4-1 6-2 4-1 6-5 11-6 3 2 6 1 8-2 7-3 13-8 17-14-4-7-9-14-16-18 0 0 0 0 0 0 0 0 0 0 1 0 1-2 0-4-2-5-2-1-3-1-4-1-2-1-3-1-4-1-4-1-7-2-8-2 0-1 0-1-1-1 0-1-1-2-3-3-2-2-4-5-5-10 0-1-1-2-2-4 1-8 2-14 1-19 0-4-2-7-5-8-2 0-4 0-6 1-2 1-5 2-8 3-3 2-6 5-11 8 1-5 3-11 4-16 4 1 11 0 8-6-2-2-2-3 1-4 1 0 3-1 4-3 4 0 9-1 14 0 4 1 9 1 14 1 4 0 9-2 14-3 13-6 24-24 39-30 3-2 6-5 9-7 2-2 3-5 3-8 0-10-1-21-3-31-1-2-4-6-8-11-5-4-10-9-16-13-2-2-4-4-6-6-2-2-3-5-4-8-2-3-2-7-2-11-3-5-5-9-6-13-2-3-3-6-4-9-1-3-3-5-4-7-12 0-22 5-33 11 1 21 5 41 7 62 1 2 1 4 0 6-10 18-21 28-18 54 0 3 1 5 1 6-4 4-10 7-14 12-26 12-54 13-73 41 3 21 10 41 21 59 11 18 25 33 41 46 2 0 4 0 5 0z m201-5c18-15 33-33 43-55 11-22 16-46 16-71l0-3-14-5c-6 2-12-2-15-8l8-3c1 0 1-1 2-2 1-4 0-9-2-13-2-3-6-6-9-9 0-2 0-4 0-7 0-5-2-10-6-17 1-2 1-4 0-6-1-4-2-7-4-11-2-3-3-7-3-9-2-8-5-16-11-22-8-9-15-12-21-11-2 0-4 2-6 5-4 9-7 18-11 28-3 9-1 18 0 27 0 7-5 13-6 19 0 3 0 6 2 9-1 1-2 1-4 2-14 4-23-4-35 7-4 4-7 10-9 17-1 11 1 20 6 29 1 1 1 2 1 2 0 3 0 4 0 5 2 0 3 1 4 2 1 0 2 1 3 2 0 1 1 3 1 4 32 3 38 8 66-8l13 9c-3 5-6 8-8 11-7 7-17 9-24 0l-31 2c-4-4-11-4-17-4 0 3 0 5-2 8-2 3-2 6-2 8 0 2 0 4 1 5 9 12 7 13 11 29 1 4 4 9 7 14 9 12 40 19 56 20z"/>
<glyph glyph-name="googleplus" unicode="&#57438;" d="M36 476l0-78c28 27 73 39 114 40l136 0-37-29-38 0c9-9 18-18 25-30 9-15 13-33 13-52 0-18-4-38-15-55-9-14-23-25-37-36-9-9-17-17-17-32 0-10 7-20 17-27 16-13 30-23 45-36 14-13 28-28 36-47 8-18 8-38 3-58l195 0 0 287-81 0 0-82-35 0 0 82-82 0 0 33 82 0 0 82 35 0 0-82 81 0 0 120z m81-61c-8 0-16-2-24-5-15-8-27-20-31-38-3-19-2-39 3-60 5-23 17-45 37-61 16-11 39-13 59-7 16 4 27 19 33 35 5 17 3 37-1 57-7 25-19 49-41 68-9 8-22 12-35 11z m-81-176l0-111c22 16 53 18 81 19 8 0 16 0 22 0-4 6-9 12-13 19-9 15-7 34 0 50-33-4-62 2-90 23z m109-109c-16 0-30-3-46-5-23-5-46-14-63-33l0-56 207 0c1 2 1 5 1 7 0 16-11 31-24 42-18 16-39 28-60 44-5 0-10 1-15 1z"/>
<glyph glyph-name="group-1" unicode="&#57439;" d="M255 412c-38 0-69-36-69-80 0-31 15-57 37-71l-25-11-67-31c-7-4-10-9-10-17 0-24 0-49 0-73 1-10 6-18 15-18l238 0c10 1 15 9 15 18 0 24 0 49 0 73 0 8-3 13-9 17l-65 31-26 12c20 14 34 40 34 70 0 44-30 80-68 80z m-111-28c-16-1-29-8-39-19-11-13-16-30-16-46 1-23 11-45 30-57l-75-35c-5-2-8-7-8-14l0-59c1-8 5-14 12-14l50 0 0 62c1 17 9 30 23 37l50 24c4 2 8 5 11 9-20 32-23 70-10 103-9 5-18 9-28 9z m223 0c-10 0-20-4-28-10 13-33 9-72-10-101 4-5 8-9 13-11l48-23c15-8 22-22 22-37l0-62 52 0c8 0 12 7 12 14l0 59c0 7-3 11-8 14l-74 35c19 15 29 36 29 57-1 18-6 34-16 46-11 12-25 19-40 19z"/>
<glyph glyph-name="group-circle" unicode="&#57440;" d="M256 476c-121 0-220-99-220-220 0-121 99-220 220-220 121 0 220 99 220 220 0 121-99 220-220 220z m0-122c20-1 37-17 42-38 2-9 3-18 0-27-3-12-9-25-21-33l17-8 42-20c4-2 6-5 6-11l0-40c0-8 1-16-10-19l-153 0c-10 1-11 11-10 19l0 40c0 6 2 9 6 11l43 20 17 8c-8 5-14 12-18 21-5 11-7 26-4 40 5 19 20 36 43 37z m-72-19c6 0 12-2 18-6-2-4-3-8-4-13-1-4-2-9-2-14 0-7 1-14 3-21 2-7 5-13 9-18-2-3-4-5-7-7l-32-15c-5-2-8-5-11-9-3-5-4-9-4-15l0-40-32 0c-5 0-8 5-8 10l0 38c0 4 2 7 5 9l49 22c-13 8-19 22-20 37 1 20 13 40 36 42z m144 0c20 0 35-20 36-42 0-14-6-27-19-37l48-22c3-2 5-5 5-9l0-38c0-5-3-10-8-10l-33 0 0 40c0 6-1 10-4 15-3 4-6 7-10 9-14 7-30 11-40 22 8 12 11 25 11 39 0 9-1 18-4 27 5 3 11 6 18 6z"/>
<glyph glyph-name="hand-down" unicode="&#57441;" d="M120 476l152 0c16-1 28-14 28-28l0-69c15-19 36-33 51-52 5-6 11-11 17-15 23-12 50-5 69-21 14-34-6-75-38-86-26-9-51-3-74 8 0-40-1-80-1-120-2-33-24-56-56-57-31 0-54 28-55 57l0 47c-9 2-18 5-25 9-20-2-39 4-52 15-113 7-46 154-44 209l0 75c0 16 13 28 28 28z m0-102c-1-44-68-195 28-180 8-16 31-22 46-12 14-15 33-20 47-5 0-14 0-28 1-42 0-14 0-28 0-42 0-17 12-28 26-28 17 0 28 13 28 28 0 55 0 109 0 160 37-5 87-49 117-4 3 8 5 13 3 21 0 1-1 2-2 2 0 0-1 0-3 1-29 4-58 9-78 32-19 25-49 39-61 68l0 1z"/>
<glyph glyph-name="hand-left" unicode="&#57442;" d="M476 120l0 152c-1 16-14 28-28 28l-69 0c-19 15-33 36-52 51-6 5-11 11-15 17-12 23-5 50-21 69-34 14-75-6-86-38-9-26-3-51 8-74-40 0-80-1-120-1-33-2-56-24-57-56 0-31 28-54 57-55l47 0c2-9 5-18 9-25-2-20 4-39 15-52 7-113 154-46 209-44l75 0c16 0 28 13 28 28z m-102 0c-44-1-195-68-180 28-16 8-22 31-12 46-15 14-20 33-5 47-14 0-28 0-42 1-14 0-28 0-42 0-17 0-28 12-28 26 0 17 13 28 28 28 55 0 109 0 160 0-5 37-49 87-4 117 8 3 13 5 21 3 1 0 2-1 2-2 0 0 0-1 1-3 4-29 9-58 32-78 25-19 39-49 68-61l1 0z"/>
<glyph glyph-name="hand-right" unicode="&#57443;" d="M36 120l0 152c1 16 14 28 28 28l69 0c19 15 33 36 52 51 6 5 11 11 15 17 12 23 5 50 21 69 34 14 75-6 86-38 9-26 3-51-8-74 40 0 80-1 120-1 33-2 56-24 57-56 0-31-28-54-57-55l-47 0c-2-9-5-18-9-25 2-20-4-39-15-52-7-113-154-46-209-44l-75 0c-16 0-28 13-28 28z m102 0c44-1 195-68 180 28 16 8 22 31 12 46 15 14 20 33 5 47 14 0 28 0 42 1 14 0 28 0 42 0 17 0 28 12 28 26 0 17-13 28-28 28-55 0-109 0-160 0 5 37 49 87 4 117-8 3-13 5-21 3-1 0-2-1-2-2 0 0 0-1-1-3-4-29-9-58-32-78-25-19-39-49-68-61l-1 0z"/>
<glyph glyph-name="hand-up" unicode="&#57444;" d="M120 36l152 0c16 1 28 14 28 28l0 69c15 19 36 33 51 52 5 6 11 11 17 15 23 12 50 5 69 21 14 34-6 75-38 86-26 9-51 3-74-8 0 40-1 80-1 120-2 33-24 56-56 57-31 0-54-28-55-57l0-47c-9-2-18-5-25-9-20 2-39-4-52-15-113-7-46-154-44-209l0-75c0-16 13-28 28-28z m0 102c-1 44-68 195 28 180 8 16 31 22 46 12 14 15 33 20 47 5 0 14 0 28 1 42 0 14 0 28 0 42 0 17 12 28 26 28 17 0 28-13 28-28 0-55 0-109 0-160 37 5 87 49 117 4 3-8 5-13 3-21 0-1-1-2-2-2 0 0-1 0-3-1-29-4-58-9-78-32-19-25-49-39-61-68l0-1z"/>
<glyph glyph-name="headphones" unicode="&#57445;" d="M421 132c0 37 0 74 0 110 0 91-74 165-165 165-91 0-165-74-165-165 0-36 0-73 0-110-4-39-54-28-55 0 0 37 0 74 0 110 0 122 99 220 220 220 121 0 220-98 220-220 0-36 0-73 0-110-4-39-54-28-55 0z m-289 83l28 0c7 0 14-6 14-14l0-137c0-8-7-14-14-14l-28 0c-7 0-13 6-13 14l0 137c0 8 6 14 13 14z m220 0l28 0c7 0 13-6 13-14l0-137c0-8-6-14-13-14l-28 0c-7 0-14 6-14 14l0 137c0 8 7 14 14 14z"/>
<glyph glyph-name="heart-2" unicode="&#57446;" d="M467 392c20-61 3-124-32-171-23-32-51-60-79-84-26-24-85-72-100-74-14 3-29 18-40 26-61 47-127 103-160 165-28 59-28 132 15 178 57 51 142 41 185-12 11 15 26 27 43 35 68 28 139 0 168-63z"/>
<glyph glyph-name="heart-circled" unicode="&#57447;" d="M256 476c-121 0-220-99-220-220 0-121 99-220 220-220 121 0 220 99 220 220 0 121-99 220-220 220z m49-126c26 0 49-14 61-38 10-32 1-65-17-89-12-17-26-31-41-44-14-12-44-37-52-38-7 1-15 10-21 14-32 24-66 53-83 85-14 31-14 69 8 92 29 27 73 22 96-6 6 8 13 14 22 18 9 4 18 6 27 6z"/>
<glyph glyph-name="heart-empty-1" unicode="&#57448;" d="M341 471c-18 0-36-4-53-11l-1 0-1 0c-11-6-22-13-31-22-49 43-127 46-180-2l-1-1 0 0c-47-49-46-125-18-184l0-1 0 0c34-62 95-114 152-157l0 0 0 0c4-3 10-8 17-13 7-6 15-12 27-14l3-1 3 1c12 1 17 5 25 11 8 5 17 11 27 18 18 15 37 31 50 42 0 1 0 1 0 1 0 0 0 0 0 0 27 23 53 49 75 79 0 0 0 0 0 0 0 0 0 0 0 0 35 48 52 111 32 174l0 1-1 1c-23 50-72 79-125 78z m1-39c38 1 72-19 88-54 16-49 2-99-26-138l-1 0c-19-27-44-51-69-73l0 0 0 0c-12-11-31-27-48-41-9-6-17-12-24-16-2-2-4-3-6-4-2 1-5 3-8 5-5 4-11 9-17 13 0 1 0 1 0 1-55 41-112 92-140 143-22 48-21 105 10 139 44 38 108 30 140-9l15-20 15 20c9 11 19 20 32 26 13 5 26 8 39 8z"/>
<glyph glyph-name="home-1" unicode="&#57449;" d="M256 476l-199-155 0-285 137 0 0 172 124 0 0-172 137 0 0 285z"/>
<glyph glyph-name="home-circled" unicode="&#57450;" d="M256 476c-121 0-220-99-220-220 0-121 99-220 220-220 121 0 220 99 220 220 0 121-99 220-220 220z m0-102l107-83 0-153-74 0 0 92-66 0 0-92-74 0 0 153 107 83z"/>
<glyph glyph-name="idea" unicode="&#57451;" d="M243 512l0-75 26 0 0 75-26 0z m-104-23l-21-14 43-62 21 15z m234 0l-43-61 21-15 43 62z m-117-73c-63 0-113-38-113-85l64-195 98 0 64 195c0 47-50 85-113 85z m-204-23l-8-24 70-26 9 25z m408 0l-71-25 9-25 70 26-8 24z m-340-110l-73-19 6-25 73 20-6 24z m272 0l-6-24 73-20 6 25z m-186-161l0-34 100 0 0 34-100 0z m0-51l0-34 100 0 0 34-100 0z"/>
<glyph glyph-name="idea-circle" unicode="&#57452;" d="M256 476c-121 0-220-99-220-220 0-121 99-220 220-220 121 0 220 99 220 220 0 121-99 220-220 220z m-7-82l14 0 0-43-14 0z m-61-13l25-36-12-8-26 36z m136 0l13-8-26-36-12 8z m-68-42c37 0 66-23 66-50l-37-114-58 0-37 114c0 27 29 50 66 50z m-119-14l42-15-6-14-41 15z m238 0l5-14-41-15-6 14z m-198-64l3-14-42-12-4 15z m158 0l43-11-4-15-42 12z m-108-94l58 0 0-20-58 0z m0-30l58 0 0-20-58 0z"/>
<glyph glyph-name="inbox" unicode="&#57453;" d="M211 476l0-103-52 0 97-145 97 145-52 0 0 103z m-175-228l0-212 440 0 0 212-145 0c0-42-33-75-75-75-42 0-75 33-75 75z"/>
<glyph glyph-name="inbox-box" unicode="&#57454;" d="M71 247l101 137 168 0 101-137-75 0-55-55-110 0-55 55-75 0z m86 165l-121-165 0-137 440 0 0 137-121 165z"/>
<glyph glyph-name="instagram-1" unicode="&#57455;" d="M36 476l0-126 130 0c20 26 52 43 87 43 35 0 67-17 87-43l136 0 0 126z m352-19l41 0c15 0 26-12 26-26l0-35c0-14-11-26-26-26l-41 0c-15 0-26 12-26 26l0 35c0 14 11 26 26 26z m-303 0l15 0 0-87-15 0z m25 0l16 0 0-87-16 0z m27 0l15 0 0-87-15 0z m-64-3l0-84-15 0 0 61c0 5 1 10 4 14 3 4 7 7 11 9z m180-74c-53 0-97-43-97-96 0-53 44-96 97-96 53 0 96 43 96 96 0 53-43 96-96 96z m0-19c42 0 77-35 77-77 0-42-35-76-77-76-43 0-77 34-77 76 0 42 34 77 77 77z m-217-28l0-297 440 0 0 297-125 0c7-15 11-31 11-49 0-60-49-108-109-108-60 0-109 48-109 108 0 18 4 34 11 49z"/>
<glyph glyph-name="like" unicode="&#57456;" d="M37 523z m262-22c16 0 30-16 40-28 24-29 11-62 6-97l109 0c15 0 22-11 21-26l-30-190c-7-24-34-45-62-48l-202 0c-12 0-21 8-22 22l0 220c0 12 8 21 22 22l50 0 50 111c2 6 10 14 18 14z m-183-121c9 0 15-6 16-15l0-244c0-8-7-14-16-15l-64 0c-8 0-15 6-15 15l0 244c0 8 6 15 15 15z"/>
<glyph glyph-name="linkedin-2" unicode="&#57457;" d="M36 476l0-440 440 0 0 440z m108-87c17 0 35-12 35-33 1-18-15-32-35-33l-1 0c-17 1-34 13-35 33 1 19 16 33 36 33z m187-87c19 0 37-6 52-21 15-17 20-41 21-65l0-110-63 0 0 103c-1 19-7 42-33 43-14 0-25-9-32-23-2-5-2-10-2-16l0-107-64 0c1 54 1 107 1 161 0 15 0 25-1 30l64 0 0-27c5 8 11 15 19 21 11 8 24 11 38 11z m-219-5l63 0 0-191-63 0z"/>
<glyph glyph-name="link" unicode="&#57458;" d="M154 36l147 147-45 44 29 29 44-45 147 147-118 118-146-147 44-44-29-29-44 44-147-146z m0 58l-60 60 89 89 16-16-29-28 29-29 28 29 16-16z m175 175l-16 16 29 28-29 29-28-29-16 16 89 89 60-60-89-89z"/>
<glyph glyph-name="lock" unicode="&#57459;" d="M253 476c-55 0-103-33-126-84-12-29-11-68-11-102l-61 0 0-254 402 0 0 254-67 0 0 49c0 18-4 36-11 53-21 49-71 83-126 84z m0-81c32-1 55-25 57-56l0-49-113 0 0 49c3 33 24 57 56 56z"/>
<glyph glyph-name="lock-circled" unicode="&#57460;" d="M256 476c-121 0-220-99-220-220 0-121 99-220 220-220 121 0 220 99 220 220 0 121-99 220-220 220z m-2-101c30 0 57-19 69-45 4-10 6-19 6-29l0-26 36 0 0-138-218 0 0 138 33 0c0 18 0 39 6 55 13 27 39 45 68 45z m-1-44c-17 0-27-13-29-30l0-26 61 0 0 26c-1 17-13 30-31 30 0 0-1 0-1 0z"/>
<glyph glyph-name="movie" unicode="&#57461;" d="M62 476l0-440 388 0 0 440z m20-27l48 0 0-36-48 0z m300 0l48 0 0-36-48 0z m-232-2l212 0 0-192-212 0z m-68-79l48 0 0-36-48 0z m300 0l48 0 0-36-48 0z m-300-81l48 0 0-36-48 0z m300 0l48 0 0-36-48 0z m-232-46l212 0 0-191-212 0z m-68-35l48 0 0-36-48 0z m300 0l48 0 0-36-48 0z m-300-81l48 0 0-36-48 0z m300 0l48 0 0-36-48 0z"/>
<glyph glyph-name="music" unicode="&#57462;" d="M170 446l-11-289c-15 7-34 11-54 8-42-6-73-38-68-72 5-33 43-56 85-50 38 6 67 32 69 61l0 0c0 0 0 0 0 0 0 1 0 2 0 2 2 30 12 260 12 260l238 24-10-206c-16 8-35 12-56 9-43-6-73-38-69-71 5-34 44-56 86-50 39 5 67 32 69 62l0 0c1 14 14 325 15 336z"/>
<glyph glyph-name="myspace" unicode="&#57463;" d="M157 148l0-27-121 0 0 27c0 33 28 60 61 60 34 0 61-27 60-60z m-5 125c0-31-24-55-55-55-30 0-55 24-55 55 0 30 25 55 55 55 31 0 55-25 55-55z m155-121l0-31-139 0 0 31c0 39 32 69 70 69 38 0 70-30 69-69z m-6 144c0-35-28-63-63-63-35 0-64 28-64 63 0 35 29 63 64 63 35 0 63-28 63-63z m175-139l-1-36-158 0 0 36c0 43 37 78 80 78 43 0 79-35 79-78z m-7 162c0-39-32-72-72-72-40 0-72 33-72 72 0 40 32 72 72 72 40 0 72-32 72-72z"/>
<glyph glyph-name="paper-clip" unicode="&#57464;" d="M209 69c75 75 135 135 200 199 22 23 36 45 41 67 10 41-5 76-32 104-26 26-54 38-84 37-29-2-59-17-87-45l-185-185 31-30 184 184c19 18 41 35 67 33 39-6 74-54 65-87-11-30-27-44-49-66-66-66-117-117-181-181-24-22-40-28-62-7-12 11-17 23-16 34 2 13 9 22 18 30l168 169c8 7 25 22 33 15 5-13-9-25-16-32l-155-155 30-30 155 155c27 27 46 61 16 92-33 29-68 10-93-15l-169-168c-17-18-27-37-29-57-2-28 11-51 28-68 16-17 34-26 56-26 26 1 52 19 66 33z"/>
<glyph glyph-name="paper-clip-circled" unicode="&#57465;" d="M256 476c-121 0-220-99-220-220 0-121 99-220 220-220 121 0 220 99 220 220 0 121-99 220-220 220z m53-82c17-1 33-8 48-24 17-17 27-39 21-65-4-13-12-27-26-41-41-41-78-78-125-125-9-9-26-20-42-21-14 0-25 6-35 16-11 11-19 25-18 43 2 13 8 25 19 36l105 105c16 15 38 27 59 9 19-19 7-40-10-57l-97-97-19 19 97 97c4 4 13 12 10 20-5 4-16-5-21-10l-105-105c-5-6-10-11-11-19-1-7 2-15 10-22 14-13 23-9 39 5 40 40 72 72 113 113 14 14 24 22 31 41 6 21-16 51-41 55-16 1-30-9-42-21l-115-115-19 19 115 115c18 18 37 28 55 29 1 0 2 0 4 0z"/>
<glyph glyph-name="path-circled" unicode="&#57466;" d="M256 475c130-2 219-102 219-219-2-125-102-219-219-219-22 0-43 3-62 9 4 6 8 14 12 22 9 17 13 36 17 54 2 8 5 18 8 31 4-8 11-14 21-19 26-13 58-9 81 3 33 18 52 47 62 79 19 75-6 146-73 175-82 25-173-6-204-79-14-49-13-111 35-131 2-1 5-1 7 0 4 2 9 25 8 29 0 2-1 4-3 6-27 36-10 90 14 117 43 36 108 42 147 7 34-40 27-102 5-142-13-19-29-34-51-34-23 0-40 20-34 42 5 26 19 53 19 77-1 21-11 33-30 34-30-4-42-32-42-57 1-12 2-25 7-35-6-25-11-46-15-62-5-27-15-56-17-83 0-9 0-17 0-25-81 39-131 114-131 201 2 127 102 219 219 219z"/>
<glyph glyph-name="path" unicode="&#57467;" d="M460 307c-1-47-21-89-54-117-43-32-97-43-146-44l0-27c-1-33-21-63-49-76-10-5-22-7-32-7-15 0-29 5-41 11l0 76c10-7 21-12 33-8 10 3 15 11 15 21l0 211 74 0 0-131c17 0 34 2 50 5 20 5 39 13 54 26 18 17 26 38 26 60 0 33-17 61-42 77-29 16-61 22-92 22-33-1-66-7-92-24-27-17-42-46-42-75 2-21 7-50 21-63l-48-51c-15 16-25 35-32 54-6 20-11 40-11 60 1 49 23 93 57 122 43 34 98 46 147 47 54-1 108-15 148-47 37-32 56-78 56-122z"/>
<glyph glyph-name="pencil-3" unicode="&#57468;" d="M464 406l-57 58c-16 15-43 14-60-3-18-17-19-44-3-60l58-58c16-16 43-15 60 3 17 17 18 44 2 60z m-367-195l115-115 188 187-116 116z m-61-174l152 31-121 121z"/>
<glyph glyph-name="pencil-circled" unicode="&#57469;" d="M256 476c-121 0-220-99-220-220 0-121 99-220 220-220 121 0 220 99 220 220 0 121-99 220-220 220z m74-69c6 0 13-2 17-7l37-37c10-10 9-27-2-38-11-11-28-11-38-1l-36 36c-10 10-10 27 1 38 6 6 14 9 21 9z m-60-48l73-73-119-119-73 73z m-138-133l77-77-96-19z"/>
<glyph glyph-name="person" unicode="&#57470;" d="M307 396c8 0 15-1 22-4 20-10 31-29 31-50l0-145c-3-23-30-17-30 0l0 137c-3 8-18 4-18 0l0-314c-4-32-45-22-46 1 0 64 0 128 0 192-3 12-20 7-21-1 1-64 1-127 1-191-4-32-45-24-46-1l-1 314c-2 7-16 4-17 0l0-137c-3-23-30-17-30 0l0 145c0 20 7 40 25 50 6 3 13 4 21 4 36 0 73 0 109 0z m0 66c0-28-23-51-51-51-28 0-51 23-51 51 0 28 23 50 51 50 28 0 51-22 51-50z"/>
<glyph glyph-name="phone" unicode="&#57471;" d="M469 111l-62-62c-9-9-21-12-33-12-52 1-101 27-141 53-67 48-128 108-166 181-15 30-32 69-30 103 0 12 3 25 12 33l62 62c13 11 25 7 34-6l49-94c6-11 3-23-5-31l-23-23c-1-2-2-4-2-6 8-34 35-65 58-87 24-21 49-50 81-57 5-1 9-2 12 1l27 27c9 7 22 10 32 4l0 0 90-53c13-8 15-24 5-33z"/>
<glyph glyph-name="phone-circled" unicode="&#57472;" d="M256 475c-121 0-219-98-219-219 0-121 98-219 219-219 121 0 219 98 219 219 0 121-98 219-219 219z m-79-87c5 1 9-2 12-7l30-57c3-7 1-14-3-19l-14-13c-1-2-2-3-2-4 6-21 22-40 36-52 14-13 29-31 49-35 2-1 5-1 7 1l16 16c5 4 13 6 19 3l0 0 55-32c7-5 8-15 3-21l-38-37c-5-5-13-7-20-7-31 1-61 16-85 32-40 29-77 65-100 109-9 18-19 42-18 62 0 8 2 15 7 20l38 37c3 3 5 4 8 4z"/>
</font>
</defs>
</svg>
